<svg width="123" height="33" viewBox="0 0 123 33" fill="none" xmlns="http://www.w3.org/2000/svg">
<g filter="url(#filter0_d_127_3209)">
<path fill-rule="evenodd" clip-rule="evenodd" d="M7.53988 10.0599L9.09756 11.6176C9.31451 11.8358 9.43627 12.131 9.43627 12.4388C9.43627 12.7465 9.31451 13.0417 9.09756 13.26L7.53988 14.8177C7.32171 15.0352 7.02621 15.1573 6.71814 15.1573C6.41007 15.1573 6.11456 15.0352 5.8964 14.8177L4.33871 13.26C4.12177 13.0417 4 12.7465 4 12.4388C4 12.131 4.12177 11.8358 4.33871 11.6176L5.8964 10.0599C6.11456 9.84236 6.41007 9.72021 6.71814 9.72021C7.02621 9.72021 7.32171 9.84236 7.53988 10.0599Z" fill="black"/>
<path fill-rule="evenodd" clip-rule="evenodd" d="M7.53997 19.1125L9.09765 20.6702C9.31466 20.8886 9.43645 21.184 9.43645 21.4919C9.43645 21.7998 9.31466 22.0952 9.09765 22.3136L7.53997 23.8713C7.32153 24.0883 7.02613 24.2101 6.71823 24.2101C6.41032 24.2101 6.11492 24.0883 5.89649 23.8713L4.3388 22.3136C4.12179 22.0952 4 21.7998 4 21.4919C4 21.184 4.12179 20.8886 4.3388 20.6702L5.89649 19.1125C6.11492 18.8955 6.41032 18.7737 6.71823 18.7737C7.02613 18.7737 7.32153 18.8955 7.53997 19.1125Z" fill="black"/>
<path fill-rule="evenodd" clip-rule="evenodd" d="M16.5926 1.00619L18.1514 2.56388C18.3684 2.78231 18.4902 3.07771 18.4902 3.38562C18.4902 3.69352 18.3684 3.98892 18.1514 4.20736L16.5926 5.76504C16.3744 5.98199 16.0792 6.10375 15.7714 6.10375C15.4637 6.10375 15.1685 5.98199 14.9502 5.76504L13.3925 4.20736C13.1755 3.98892 13.0537 3.69352 13.0537 3.38562C13.0537 3.07771 13.1755 2.78231 13.3925 2.56388L14.9502 1.00619C15.1685 0.789248 15.4637 0.66748 15.7714 0.66748C16.0792 0.66748 16.3744 0.789248 16.5926 1.00619Z" fill="black"/>
<path fill-rule="evenodd" clip-rule="evenodd" d="M16.5926 10.0598L18.1513 11.6175C18.3682 11.8357 18.49 12.131 18.49 12.4387C18.49 12.7464 18.3682 13.0417 18.1513 13.2599L16.5926 14.8176C16.3746 15.035 16.0792 15.1572 15.7713 15.1572C15.4634 15.1572 15.1681 15.035 14.9501 14.8176L13.3924 13.2599C13.1755 13.0417 13.0537 12.7464 13.0537 12.4387C13.0537 12.131 13.1755 11.8357 13.3924 11.6175L14.9501 10.0598C15.1681 9.84233 15.4634 9.72021 15.7713 9.72021C16.0792 9.72021 16.3746 9.84233 16.5926 10.0598Z" fill="black"/>
<path fill-rule="evenodd" clip-rule="evenodd" d="M16.5926 19.1124L18.1514 20.6701C18.3684 20.8885 18.4902 21.1839 18.4902 21.4918C18.4902 21.7997 18.3684 22.0951 18.1514 22.3136L16.5926 23.8712C16.3744 24.0882 16.0792 24.21 15.7714 24.21C15.4637 24.21 15.1685 24.0882 14.9502 23.8712L13.3925 22.3136C13.1755 22.0951 13.0537 21.7997 13.0537 21.4918C13.0537 21.1839 13.1755 20.8885 13.3925 20.6701L14.9502 19.1124C15.1685 18.8954 15.4637 18.7737 15.7714 18.7737C16.0792 18.7737 16.3744 18.8954 16.5926 19.1124Z" fill="black"/>
<path fill-rule="evenodd" clip-rule="evenodd" d="M25.6459 1.00619L27.2046 2.56388C27.4216 2.78231 27.5434 3.07771 27.5434 3.38562C27.5434 3.69352 27.4216 3.98892 27.2046 4.20736L25.6459 5.76504C25.4276 5.98199 25.1324 6.10375 24.8246 6.10375C24.5169 6.10375 24.2217 5.98199 24.0034 5.76504L22.4447 4.20736C22.2274 3.98906 22.1055 3.6936 22.1055 3.38562C22.1055 3.07763 22.2274 2.78218 22.4447 2.56388L24.0034 1.00619C24.2217 0.789248 24.5169 0.66748 24.8246 0.66748C25.1324 0.66748 25.4276 0.789248 25.6459 1.00619Z" fill="black"/>
<path fill-rule="evenodd" clip-rule="evenodd" d="M25.6458 10.06L27.2045 11.6177C27.4214 11.836 27.5432 12.1312 27.5432 12.439C27.5432 12.7467 27.4214 13.0419 27.2045 13.2602L25.6458 14.8179C25.4278 15.0353 25.1324 15.1574 24.8245 15.1574C24.5166 15.1574 24.2213 15.0353 24.0033 14.8179L22.4446 13.2602C22.2274 13.0421 22.1055 12.7468 22.1055 12.439C22.1055 12.1311 22.2274 11.8359 22.4446 11.6177L24.0023 10.06C24.2203 9.84229 24.5159 9.71997 24.824 9.71997C25.1322 9.71997 25.4277 9.84229 25.6458 10.06Z" fill="black"/>
<path fill-rule="evenodd" clip-rule="evenodd" d="M25.6459 19.1124L27.2046 20.6701C27.4216 20.8885 27.5434 21.1839 27.5434 21.4918C27.5434 21.7997 27.4216 22.0952 27.2046 22.3136L25.6459 23.8713C25.4276 24.0882 25.1324 24.21 24.8246 24.21C24.5169 24.21 24.2217 24.0882 24.0034 23.8713L22.4447 22.3136C22.2274 22.0953 22.1055 21.7998 22.1055 21.4918C22.1055 21.1839 22.2274 20.8884 22.4447 20.6701L24.0024 19.1124C24.2207 18.8952 24.5161 18.7732 24.8241 18.7732C25.1321 18.7732 25.4276 18.8952 25.6459 19.1124Z" fill="black"/>
<path fill-rule="evenodd" clip-rule="evenodd" d="M7.54045 1.00628L9.09814 2.56397C9.31515 2.7824 9.43694 3.0778 9.43694 3.38571C9.43694 3.69361 9.31515 3.98901 9.09814 4.20745L7.54045 5.76513C7.32202 5.98214 7.02662 6.10393 6.71872 6.10393C6.41081 6.10393 6.11541 5.98214 5.89698 5.76513L4.33929 4.20745C4.12228 3.98901 4.00049 3.69361 4.00049 3.38571C4.00049 3.0778 4.12228 2.7824 4.33929 2.56397L5.89698 1.00628C6.11541 0.789274 6.41081 0.66748 6.71872 0.66748C7.02662 0.66748 7.32202 0.789274 7.54045 1.00628Z" fill="black"/>
<path fill-rule="evenodd" clip-rule="evenodd" d="M108.292 0.715627C108.252 0.711035 108.211 0.715568 108.173 0.728889C108.135 0.74221 108.1 0.763977 108.071 0.792574C108.043 0.821172 108.021 0.855865 108.007 0.894079C107.994 0.932293 107.989 0.973046 107.994 1.01331V15.4108C107.989 15.4512 107.994 15.492 108.007 15.5304C108.02 15.5687 108.042 15.6035 108.071 15.6323C108.1 15.661 108.135 15.6828 108.173 15.6962C108.211 15.7096 108.252 15.7142 108.292 15.7095H110.166C110.207 15.7142 110.248 15.7096 110.286 15.6963C110.324 15.6829 110.359 15.661 110.388 15.6323C110.416 15.6035 110.438 15.5687 110.451 15.5303C110.465 15.492 110.469 15.4511 110.464 15.4108V7.61617C111.318 6.6797 112.317 6.27245 113.574 6.27245C115.279 6.27245 116.279 7.25233 116.279 9.29686V15.4087C116.275 15.4491 116.279 15.49 116.293 15.5283C116.306 15.5667 116.328 15.6015 116.357 15.6302C116.385 15.6589 116.42 15.6808 116.458 15.6942C116.497 15.7075 116.538 15.7121 116.578 15.7075H118.452C118.492 15.7119 118.533 15.7072 118.571 15.6938C118.609 15.6803 118.644 15.6584 118.673 15.6297C118.701 15.6011 118.723 15.5663 118.736 15.528C118.75 15.4898 118.754 15.449 118.75 15.4087V9.21417C118.75 5.72049 116.579 3.93126 113.574 3.93126C112.381 3.93126 111.339 4.27236 110.464 5.10237V1.01331C110.469 0.973101 110.464 0.932363 110.451 0.894142C110.438 0.85592 110.416 0.821203 110.387 0.792581C110.359 0.763959 110.324 0.742172 110.286 0.728847C110.247 0.715522 110.207 0.711003 110.166 0.715627H108.292ZM100.833 3.93126C97.4217 3.93126 94.8262 6.44506 94.8262 9.87363C94.8262 13.3022 97.4248 15.8801 100.833 15.8801C102.963 15.8801 104.815 14.9426 105.898 13.1534C105.917 13.1282 105.931 13.0994 105.94 13.0687C105.948 13.038 105.95 13.0059 105.946 12.9743C105.942 12.9427 105.932 12.9122 105.916 12.8846C105.9 12.8569 105.879 12.8327 105.854 12.8133L104.51 11.7476C104.383 11.6442 104.277 11.6442 104.17 11.7476C103.297 13.0262 102.275 13.5368 100.826 13.5368C98.7179 13.5368 97.2915 11.9864 97.2915 9.87363C97.2915 7.76088 98.6962 6.27451 100.826 6.27451C102.274 6.27451 103.234 6.80684 104.106 7.99965C104.192 8.10301 104.362 8.19087 104.51 8.04203L105.854 7.01976C105.957 6.93501 105.982 6.82854 105.898 6.6797C104.881 4.93286 102.836 3.93126 100.833 3.93126ZM87.2445 6.24867C88.9273 6.24867 90.4395 7.27094 90.6101 8.76247H83.7302C84.0713 7.29264 85.5194 6.24867 87.2445 6.24867ZM91.3977 12.3616C91.3804 12.3329 91.3564 12.3088 91.3277 12.2914C91.299 12.274 91.2666 12.2638 91.2331 12.2618C91.1996 12.2598 91.1661 12.2659 91.1356 12.2797C91.105 12.2935 91.0783 12.3145 91.0576 12.3409C89.9485 13.2557 88.7991 13.5544 87.352 13.5544C85.477 13.5544 84.1571 12.5321 83.7509 11.0623H92.8665C93.037 11.0623 93.1228 10.9589 93.1228 10.7646V9.91601C93.1228 6.44506 90.6948 3.93126 87.2445 3.93126C83.7726 3.93126 81.175 6.44506 81.175 9.91601C81.175 13.3456 83.7085 15.8801 87.352 15.8801C89.0544 15.8801 90.8664 15.3901 92.3982 14.0909C92.5016 13.9875 92.5264 13.8562 92.4199 13.7498L91.3977 12.3657V12.3616ZM73.5923 4.14419L72.2083 4.27236C72.173 4.27314 72.1384 4.28099 72.1063 4.29545C72.0741 4.30991 72.0453 4.33068 72.0214 4.35653C71.9974 4.38237 71.979 4.41276 71.967 4.44589C71.9551 4.47903 71.95 4.51422 71.9519 4.54938V6.09983C71.9473 6.14018 71.9518 6.18105 71.9652 6.21939C71.9786 6.25774 72.0005 6.29257 72.0292 6.32128C72.0579 6.35 72.0927 6.37186 72.1311 6.38524C72.1694 6.39862 72.2103 6.40317 72.2506 6.39855H73.5716V11.9802C73.5716 14.2593 74.6776 15.878 77.2338 15.878C78.3201 15.878 79.1305 15.6434 79.9212 15.1317C80.1125 15.0284 80.1548 14.8981 80.0701 14.7059L79.4943 13.3435C79.4313 13.1937 79.3031 13.1089 79.0695 13.2154C78.5938 13.4529 78.0671 13.57 77.5356 13.5565C76.6198 13.5565 76.0441 13.0024 76.0441 11.9161V6.40268H79.1967C79.237 6.40734 79.2778 6.4028 79.3161 6.38942C79.3544 6.37604 79.3892 6.35416 79.4178 6.32541C79.4465 6.29667 79.4682 6.26182 79.4815 6.22346C79.4947 6.18511 79.4991 6.14426 79.4943 6.10396V4.3995C79.499 4.35929 79.4944 4.31855 79.4811 4.28033C79.4678 4.24211 79.446 4.20739 79.4174 4.17877C79.3888 4.15015 79.3541 4.12836 79.3158 4.11503C79.2776 4.10171 79.2369 4.09719 79.1967 4.10181H76.043V1.84436C76.044 1.80499 76.037 1.76584 76.0224 1.72927C76.0078 1.6927 75.9859 1.65949 75.9581 1.63165C75.9302 1.6038 75.897 1.58191 75.8604 1.5673C75.8239 1.5527 75.7847 1.54568 75.7453 1.54667H74.1246C73.9541 1.54667 73.8476 1.65003 73.8259 1.84436L73.5923 4.14419ZM59.6837 4.10181C59.6435 4.09719 59.6028 4.10171 59.5645 4.11503C59.5263 4.12836 59.4916 4.15015 59.463 4.17877C59.4343 4.20739 59.4126 4.24211 59.3992 4.28033C59.3859 4.31855 59.3814 4.35929 59.386 4.3995V10.7905C59.386 14.3255 61.3241 15.8801 64.2214 15.8801C65.4989 15.8801 66.67 15.5173 67.6716 14.6015H67.7988L67.99 15.4532C68.0032 15.5315 68.046 15.6017 68.1094 15.6494C68.1729 15.697 68.2522 15.7186 68.3311 15.7095H69.8412C69.8816 15.7142 69.9225 15.7096 69.9608 15.6962C69.9991 15.6828 70.034 15.661 70.0627 15.6323C70.0914 15.6035 70.1133 15.5687 70.1266 15.5304C70.14 15.492 70.1446 15.4512 70.14 15.4108V4.3995C70.1444 4.35923 70.1397 4.31848 70.1263 4.28027C70.1128 4.24205 70.0909 4.20736 70.0622 4.17876C70.0335 4.15016 69.9988 4.1284 69.9605 4.11508C69.9223 4.10175 69.8815 4.09722 69.8412 4.10181H67.9693C67.929 4.09702 67.8882 4.10141 67.8498 4.11466C67.8115 4.12791 67.7766 4.14967 67.7479 4.17832C67.7191 4.20696 67.6972 4.24174 67.6839 4.28004C67.6705 4.31835 67.6659 4.35919 67.6706 4.3995V12.0484C66.9036 13.049 65.6674 13.5389 64.4756 13.5389C62.6854 13.5389 61.8554 12.6655 61.8554 10.6447V4.3995C61.86 4.35929 61.8555 4.31855 61.8422 4.28033C61.8288 4.24211 61.807 4.20739 61.7784 4.17877C61.7498 4.15015 61.7151 4.12836 61.6769 4.11503C61.6386 4.10171 61.5979 4.09719 61.5577 4.10181H59.6837ZM48.353 7.65855C49.2698 6.72208 50.1856 6.27451 51.6978 6.27451C53.7207 6.27451 55.2329 7.68026 55.2329 9.89223C55.2329 12.129 53.7207 13.5337 51.6978 13.5337C50.2704 13.5337 49.2698 13.0872 48.353 12.0866V7.65855ZM46.1813 0.715627C46.1411 0.711035 46.1003 0.715568 46.0621 0.728889C46.0238 0.74221 45.989 0.763977 45.9603 0.792574C45.9316 0.821172 45.9097 0.855865 45.8963 0.894079C45.8828 0.932293 45.8782 0.973046 45.8826 1.01331V15.4108C45.878 15.4512 45.8825 15.492 45.8959 15.5304C45.9093 15.5687 45.9312 15.6035 45.9599 15.6323C45.9886 15.661 46.0234 15.6828 46.0618 15.6962C46.1001 15.7096 46.141 15.7142 46.1813 15.7095H47.6284C47.7041 15.7148 47.7791 15.6913 47.8383 15.6438C47.8974 15.5963 47.9366 15.5282 47.9478 15.4532L48.1184 14.6873L48.2672 14.6656C49.1406 15.5173 50.3965 15.8801 51.6968 15.8801C55.1078 15.8801 57.6805 13.4727 57.6805 9.89533C57.6805 6.31793 55.1678 3.93126 51.6968 3.93126C50.4182 3.93126 49.3536 4.25066 48.352 5.0817V1.01331C48.3566 0.973197 48.3521 0.932561 48.3388 0.894425C48.3255 0.856288 48.3038 0.821631 48.2753 0.79303C48.2468 0.764428 48.2123 0.742617 48.1742 0.729217C48.1361 0.715816 48.0955 0.711171 48.0553 0.715627H46.1813ZM40.6855 11.9399C39.9403 12.9404 38.7909 13.5585 37.1711 13.5585C35.8274 13.5585 35.2331 13.0045 35.2331 12.1321C35.2331 11.3858 35.7654 10.8111 36.9365 10.6199L40.6845 9.99973L40.6855 11.9399ZM41.1124 14.3462L41.6447 15.6899C41.6535 15.7273 41.6706 15.7623 41.6948 15.7922C41.719 15.8221 41.7496 15.8461 41.7844 15.8625C41.8192 15.8789 41.8572 15.8873 41.8957 15.8869C41.9341 15.8865 41.972 15.8775 42.0065 15.8604L43.5187 15.3705C43.7523 15.3064 43.774 15.1152 43.711 14.9446L43.4339 14.0505C43.1993 13.2836 43.1569 12.5001 43.1569 11.6432V7.93556C43.1569 5.05999 40.8767 3.93126 38.365 3.93126C36.2347 3.93126 34.7866 4.507 33.3591 5.54994C33.321 5.57702 33.2892 5.61209 33.2659 5.6527C33.2427 5.6933 33.2285 5.73848 33.2245 5.7851C33.2205 5.83171 33.2266 5.87865 33.2426 5.92264C33.2585 5.96664 33.2838 6.00664 33.3167 6.03988L34.1436 7.21099C34.2059 7.28268 34.2925 7.32886 34.3867 7.34069C34.4809 7.35252 34.5762 7.32915 34.6542 7.27507C35.8512 6.52982 36.8104 6.24867 38.365 6.24867C39.6426 6.24867 40.6855 6.65386 40.6855 7.65442V7.90972L36.9375 8.39967C34.3183 8.74076 32.7627 10.1041 32.7627 12.2551C32.7627 14.4258 34.4672 15.8728 36.9158 15.8728C38.6203 15.8728 39.962 15.3405 41.0049 14.3389L41.1124 14.3462Z" fill="black"/>
<path d="M33.1939 21.6552C33.1941 21.6983 33.2063 21.7405 33.2291 21.777C33.2519 21.8135 33.2845 21.8429 33.3231 21.862C33.4427 21.9266 33.5697 21.9762 33.7014 22.0098C33.8125 22.0349 33.9222 22.0656 34.0301 22.1018C34.1337 22.1388 34.2332 22.1866 34.3268 22.2444C34.4276 22.3039 34.5105 22.3897 34.5666 22.4925C34.624 22.603 34.6511 22.7267 34.6451 22.8511C34.6495 22.97 34.6241 23.088 34.5712 23.1945C34.5183 23.3011 34.4396 23.3927 34.3423 23.461C34.123 23.6139 33.8601 23.6918 33.5929 23.6832C33.3534 23.6902 33.1165 23.632 32.9076 23.5147C32.7235 23.4089 32.5785 23.2465 32.4941 23.0517L32.9955 22.7592C33.0864 23.0183 33.2862 23.1478 33.595 23.1478C33.9037 23.1478 34.0563 23.0472 34.0529 22.846C34.0529 22.6992 33.8823 22.5834 33.5412 22.5018C33.4307 22.4748 33.3217 22.442 33.2146 22.4036C33.1137 22.3653 33.0162 22.3187 32.9231 22.264C32.8215 22.2067 32.7377 22.1222 32.6812 22.0201C32.6231 21.9128 32.5955 21.7916 32.6016 21.6697C32.5982 21.5549 32.6219 21.4409 32.6708 21.3369C32.7196 21.2329 32.7922 21.1419 32.8828 21.0712C33.0852 20.9163 33.335 20.8363 33.5898 20.8449C33.796 20.8405 33.9998 20.89 34.181 20.9885C34.3521 21.0848 34.4917 21.2283 34.5831 21.402L34.0921 21.6769C34.0512 21.5782 33.98 21.4951 33.8888 21.4393C33.7976 21.3836 33.6911 21.3583 33.5846 21.3668C33.4846 21.3627 33.3857 21.3894 33.3014 21.4433C33.2664 21.466 33.238 21.4976 33.2191 21.5348C33.2003 21.572 33.1916 21.6136 33.1939 21.6552Z" fill="black"/>
<path d="M35.5259 22.2599C35.5226 22.3725 35.5424 22.4846 35.584 22.5893C35.6256 22.694 35.6881 22.789 35.7678 22.8687C35.9284 23.0245 36.1435 23.1117 36.3673 23.1117C36.5911 23.1117 36.8061 23.0245 36.9668 22.8687C37.122 22.7038 37.2085 22.4859 37.2085 22.2594C37.2085 22.0329 37.122 21.8149 36.9668 21.65C36.8061 21.4942 36.5911 21.407 36.3673 21.407C36.1435 21.407 35.9284 21.4942 35.7678 21.65C35.688 21.7298 35.6254 21.8251 35.5838 21.93C35.5422 22.0348 35.5225 22.1471 35.5259 22.2599ZM36.3663 23.6791C36.0401 23.6764 35.7249 23.5609 35.4743 23.3522C35.2236 23.1435 35.053 22.8544 34.9913 22.5341C34.9296 22.2138 34.9807 21.8821 35.136 21.5952C35.2912 21.3084 35.5409 21.0841 35.8428 20.9605C36.1446 20.8369 36.48 20.8216 36.7918 20.9173C37.1036 21.0129 37.3727 21.2136 37.5534 21.4852C37.734 21.7567 37.8151 22.0825 37.7828 22.4071C37.7505 22.7316 37.6068 23.035 37.3761 23.2656C37.2445 23.4007 37.0864 23.5072 36.9118 23.5783C36.7371 23.6494 36.5496 23.6838 36.3611 23.6791H36.3663Z" fill="black"/>
<path d="M39.6317 19.7614V20.3216C39.2065 20.2865 38.9939 20.465 38.9939 20.8571V20.9098H39.6317V21.4721H38.9939V23.6076H38.412V21.4721H37.9985V20.9098H38.412V20.8571C38.412 20.4819 38.5154 20.1997 38.7221 20.0095C38.9288 19.8193 39.2348 19.7356 39.6317 19.7614Z" fill="black"/>
<path d="M41.5748 20.9098V21.4721H40.9009V22.7662C40.8967 22.8092 40.9012 22.8526 40.9141 22.8938C40.9271 22.9351 40.9483 22.9732 40.9763 23.006C41.0386 23.0597 41.1185 23.0884 41.2006 23.0867C41.3239 23.0933 41.4474 23.0933 41.5707 23.0867V23.6097C41.1242 23.6634 40.8037 23.6252 40.6094 23.4949C40.4161 23.3637 40.3179 23.1208 40.3179 22.7714V21.4721H39.8218V20.9098H40.3179V20.3279L40.9009 20.1553V20.9098H41.5748Z" fill="black"/>
<path d="M44.7085 22.7712L45.2367 20.9097H45.8517L45.0052 23.6075H44.4336L43.8723 21.7893L43.3059 23.6075H42.7333L41.8867 20.9097H42.5017L43.0247 22.7712L43.5922 20.9097H44.1483L44.7085 22.7712Z" fill="black"/>
<path d="M46.8491 22.8789C47.0136 23.0354 47.232 23.1226 47.459 23.1226C47.686 23.1226 47.9043 23.0354 48.0688 22.8789C48.1492 22.7974 48.2122 22.7003 48.2539 22.5937C48.2957 22.4871 48.3153 22.3732 48.3117 22.2587C48.3165 22.1442 48.2973 22.0299 48.2555 21.9231C48.2137 21.8163 48.1501 21.7194 48.0688 21.6385C47.906 21.479 47.687 21.3896 47.459 21.3896C47.231 21.3896 47.012 21.479 46.8491 21.6385C46.7684 21.7197 46.7052 21.8167 46.6636 21.9234C46.622 22.0301 46.6028 22.1443 46.6073 22.2587C46.6044 22.373 46.6243 22.4867 46.6659 22.5931C46.7074 22.6996 46.7697 22.7968 46.8491 22.8789ZM48.3128 21.2933V20.9098H48.8947V23.6076H48.3128V23.22C48.2062 23.3697 48.0638 23.4901 47.8985 23.5703C47.7333 23.6505 47.5505 23.6879 47.367 23.6789C47.1887 23.6806 47.012 23.6446 46.8485 23.5733C46.685 23.5021 46.5384 23.3972 46.4181 23.2655C46.1644 22.991 46.0234 22.631 46.0234 22.2572C46.0234 21.8834 46.1644 21.5233 46.4181 21.2489C46.5383 21.1171 46.685 21.0122 46.8485 20.9409C47.012 20.8697 47.1887 20.8337 47.367 20.8354C47.5499 20.8261 47.7322 20.8626 47.8974 20.9417C48.0625 21.0207 48.2053 21.1398 48.3128 21.2881V21.2933Z" fill="black"/>
<path d="M50.1599 20.9099V21.3626C50.3066 21.0291 50.5823 20.8623 50.9868 20.8623V21.4928C50.7793 21.4752 50.5723 21.5328 50.4038 21.6551C50.2384 21.7729 50.1557 21.9724 50.1557 22.2484V23.6076H49.5728V20.9099H50.1599Z" fill="black"/>
<path d="M51.754 22.0335H53.3406C53.3134 21.8429 53.2188 21.6683 53.074 21.5415C52.9321 21.425 52.753 21.3637 52.5696 21.3689C52.3753 21.3585 52.1842 21.4208 52.0334 21.5437C51.8826 21.6665 51.783 21.8412 51.754 22.0335ZM53.9071 22.5079H51.754C51.789 22.6961 51.8944 22.8639 52.0486 22.9772C52.2155 23.0927 52.4153 23.151 52.6181 23.1436C52.753 23.1516 52.8877 23.125 53.0094 23.0664C53.1311 23.0078 53.2359 22.9191 53.3138 22.8087L53.7944 23.0909C53.5319 23.483 53.1377 23.679 52.6119 23.679C52.4167 23.6871 52.2219 23.6558 52.039 23.5871C51.8561 23.5184 51.6889 23.4136 51.5473 23.279C51.2889 23.0046 51.145 22.6419 51.145 22.265C51.145 21.8881 51.2889 21.5254 51.5473 21.251C51.6794 21.114 51.8389 21.0063 52.0154 20.9351C52.1919 20.8639 52.3814 20.8306 52.5716 20.8376C52.7538 20.8323 52.935 20.8665 53.1027 20.9379C53.2704 21.0093 53.4207 21.1161 53.5432 21.251C53.6941 21.4188 53.8049 21.6187 53.8674 21.8355C53.9298 22.0523 53.9424 22.2804 53.904 22.5028L53.9071 22.5079Z" fill="black"/>
<path d="M56.4583 22.8792C56.6229 23.0358 56.8414 23.1231 57.0686 23.1231C57.2958 23.1231 57.5143 23.0358 57.679 22.8792C57.7592 22.7976 57.822 22.7005 57.8637 22.5939C57.9055 22.4874 57.9253 22.3735 57.9219 22.2591C57.9262 22.1445 57.9069 22.0304 57.8651 21.9236C57.8233 21.8169 57.76 21.72 57.679 21.6389C57.5159 21.4792 57.2968 21.3898 57.0686 21.3898C56.8404 21.3898 56.6213 21.4792 56.4583 21.6389C56.3775 21.7201 56.3143 21.8171 56.2727 21.9238C56.2311 22.0305 56.2119 22.1446 56.2164 22.2591C56.2135 22.3733 56.2334 22.487 56.275 22.5935C56.3165 22.7 56.3788 22.7971 56.4583 22.8792ZM57.9219 21.2936V19.8311H58.5038V23.608H57.9219V23.2203C57.8154 23.3698 57.6732 23.4902 57.5081 23.5704C57.343 23.6506 57.1605 23.688 56.9771 23.6793C56.7986 23.6811 56.6217 23.6452 56.458 23.574C56.2944 23.5027 56.1475 23.3977 56.0272 23.2658C55.7739 22.9911 55.6333 22.6312 55.6333 22.2575C55.6333 21.8839 55.7739 21.5239 56.0272 21.2492C56.1475 21.1173 56.2943 21.0122 56.458 20.941C56.6217 20.8697 56.7986 20.8339 56.9771 20.8357C57.1603 20.8271 57.3428 20.8644 57.5078 20.9444C57.6728 21.0244 57.8152 21.1445 57.9219 21.2936Z" fill="black"/>
<path d="M59.6379 22.0335H61.2235C61.1945 21.844 61.0984 21.6712 60.9527 21.5466C60.811 21.43 60.6318 21.3687 60.4483 21.374C60.253 21.3671 60.0617 21.4301 59.9088 21.5518C59.7618 21.676 59.6643 21.8487 59.6338 22.0387L59.6379 22.0335ZM61.791 22.5079H59.6431C59.6777 22.6962 59.7831 22.8642 59.9377 22.9772C60.1042 23.0927 60.3037 23.151 60.5062 23.1436C60.6412 23.1515 60.776 23.1249 60.8978 23.0663C61.0197 23.0077 61.1247 22.9191 61.2029 22.8087L61.6825 23.0909C61.4199 23.4826 61.0271 23.679 60.501 23.679C60.3061 23.6869 60.1117 23.6556 59.9291 23.5868C59.7466 23.5181 59.5797 23.4134 59.4384 23.279C59.1791 23.0054 59.0342 22.643 59.0332 22.2661C59.0322 21.8891 59.1754 21.526 59.4333 21.251C59.5656 21.114 59.7252 21.0063 59.9019 20.9351C60.0786 20.8638 60.2683 20.8306 60.4586 20.8376C60.6407 20.8325 60.8216 20.8668 60.9892 20.9381C61.1567 21.0095 61.3068 21.1162 61.4292 21.251C61.6833 21.5243 61.8209 21.8858 61.8127 22.2588C61.8119 22.3406 61.8046 22.4221 61.791 22.5028V22.5079Z" fill="black"/>
<path d="M63.2965 22.9604L64.0459 20.9097H64.6837L63.6314 23.6075H62.9565L61.9053 20.9097H62.542L63.2965 22.9604Z" fill="black"/>
<path d="M65.3977 22.0335H66.9843C66.9563 21.8429 66.8614 21.6685 66.7166 21.5415C66.5748 21.425 66.3957 21.3637 66.2122 21.3689C66.0169 21.3619 65.8256 21.425 65.6727 21.5466C65.5257 21.6708 65.4282 21.8435 65.3977 22.0335ZM67.5497 22.5079H65.3977C65.432 22.6961 65.537 22.864 65.6913 22.9772C65.8582 23.0927 66.058 23.151 66.2608 23.1436C66.3956 23.1514 66.5302 23.1247 66.6519 23.0662C66.7736 23.0076 66.8784 22.919 66.9564 22.8087L67.4371 23.0909C67.1745 23.483 66.7804 23.679 66.2546 23.679C66.0597 23.6869 65.8652 23.6555 65.6827 23.5868C65.5002 23.5181 65.3333 23.4134 65.192 23.279C64.9341 23.0044 64.7905 22.6418 64.7905 22.265C64.7905 21.8883 64.9341 21.5257 65.192 21.251C65.3241 21.114 65.4836 21.0063 65.6601 20.9351C65.8366 20.8639 66.0261 20.8306 66.2163 20.8376C66.3985 20.8323 66.5797 20.8665 66.7474 20.9379C66.9152 21.0093 67.0654 21.1161 67.188 21.251C67.4424 21.524 67.5801 21.8857 67.5714 22.2588C67.5707 22.3406 67.5631 22.4222 67.5487 22.5028L67.5497 22.5079Z" fill="black"/>
<path d="M68.083 23.6076H68.6649V19.6694H68.083V23.6076Z" fill="black"/>
<path d="M69.77 22.2599C69.7665 22.3727 69.7863 22.485 69.8283 22.5898C69.8703 22.6946 69.9335 22.7895 70.0139 22.8687C70.1742 23.0244 70.3889 23.1115 70.6124 23.1115C70.8359 23.1115 71.0506 23.0244 71.2109 22.8687C71.3675 22.7045 71.4549 22.4863 71.4549 22.2594C71.4549 22.0325 71.3675 21.8142 71.2109 21.6501C71.0924 21.5304 70.9407 21.4489 70.7755 21.4163C70.6102 21.3837 70.439 21.4013 70.2839 21.4669C70.1288 21.5326 69.9969 21.6432 69.9053 21.7846C69.8137 21.9259 69.7666 22.0915 69.77 22.2599ZM70.6124 23.6791C70.2862 23.6767 69.9709 23.5614 69.7201 23.3528C69.4693 23.1442 69.2984 22.8552 69.2366 22.5349C69.1747 22.2146 69.2257 21.8828 69.3808 21.5958C69.5359 21.3088 69.7856 21.0844 70.0874 20.9607C70.3893 20.837 70.7247 20.8216 71.0366 20.9172C71.3485 21.0128 71.6176 21.2134 71.7984 21.485C71.9791 21.7565 72.0602 22.0823 72.0279 22.4069C71.9956 22.7316 71.8519 23.035 71.6212 23.2656C71.4904 23.4 71.3333 23.506 71.1598 23.5771C70.9862 23.6483 70.7999 23.683 70.6124 23.6791Z" fill="black"/>
<path d="M73.3928 22.879C73.557 23.0356 73.7752 23.123 74.0021 23.123C74.229 23.123 74.4472 23.0356 74.6114 22.879C74.6919 22.7975 74.7551 22.7005 74.797 22.5939C74.8389 22.4873 74.8588 22.3733 74.8554 22.2588C74.86 22.1442 74.8406 22.0298 74.7986 21.923C74.7566 21.8163 74.6929 21.7194 74.6114 21.6386C74.4489 21.4788 74.23 21.3893 74.0021 21.3893C73.7742 21.3893 73.5553 21.4788 73.3928 21.6386C73.3115 21.7195 73.2479 21.8164 73.2061 21.9232C73.1643 22.0299 73.1451 22.1442 73.1499 22.2588C73.1469 22.3732 73.1669 22.4869 73.2086 22.5935C73.2503 22.7 73.3129 22.7971 73.3928 22.879ZM74.0946 20.8407C74.2731 20.8393 74.4498 20.8754 74.6134 20.9466C74.7771 21.0178 74.9239 21.1226 75.0445 21.2541C75.297 21.5282 75.4372 21.8872 75.4372 22.2598C75.4372 22.6325 75.297 22.9915 75.0445 23.2656C74.9241 23.3973 74.7772 23.5022 74.6136 23.5734C74.4499 23.6447 74.2731 23.6806 74.0946 23.679C73.9119 23.6874 73.7299 23.6503 73.5651 23.5711C73.4002 23.492 73.2575 23.3731 73.1499 23.2253V24.6878H72.5669V20.9099H73.1509V21.2996C73.257 21.15 73.399 21.0295 73.564 20.9493C73.7289 20.8691 73.9114 20.8317 74.0946 20.8407Z" fill="black"/>
<path d="M78.9125 20.8407C79.0496 20.8349 79.1862 20.8584 79.3135 20.9096C79.4407 20.9607 79.5556 21.0384 79.6506 21.1373C79.8455 21.356 79.9465 21.6427 79.9317 21.9353V23.6077H79.3518V21.9736C79.3613 21.8169 79.3111 21.6625 79.2113 21.5415C79.1628 21.4888 79.1033 21.4475 79.037 21.4206C78.9707 21.3936 78.8993 21.3816 78.8278 21.3854C78.747 21.3814 78.6663 21.3956 78.5917 21.4269C78.5171 21.4582 78.4505 21.5058 78.3968 21.5663C78.2818 21.7185 78.2259 21.9073 78.2396 22.0976V23.6077H77.6577V21.9736C77.6675 21.8176 77.6205 21.6634 77.5254 21.5394C77.4784 21.4873 77.4203 21.4463 77.3553 21.4197C77.2904 21.393 77.2203 21.3813 77.1502 21.3854C77.0688 21.3822 76.9878 21.3969 76.9128 21.4286C76.8377 21.4602 76.7706 21.5079 76.7161 21.5684C76.5972 21.7181 76.5386 21.9069 76.5517 22.0976V23.6077H75.9688V20.9099H76.5517V21.2366C76.6343 21.109 76.7491 21.0055 76.8845 20.9366C77.0199 20.8676 77.1711 20.8356 77.3228 20.8438C77.4776 20.8359 77.6314 20.8716 77.7668 20.9469C77.9022 21.0222 78.0138 21.134 78.0887 21.2697C78.2658 20.9857 78.5415 20.8438 78.9156 20.8438L78.9125 20.8407Z" fill="black"/>
<path d="M81.0037 22.0335H82.5904C82.5636 21.8449 82.4701 21.6721 82.3268 21.5466C82.1855 21.4299 82.0066 21.3686 81.8234 21.374C81.6281 21.3669 81.4367 21.4299 81.2839 21.5518C81.1366 21.6759 81.0387 21.8486 81.0079 22.0386L81.0037 22.0335ZM83.1568 22.5079H81.0141C81.0484 22.6961 81.1534 22.864 81.3076 22.9772C81.4745 23.0928 81.6743 23.1512 81.8772 23.1436C82.012 23.1513 82.1466 23.1246 82.2682 23.066C82.3899 23.0074 82.4947 22.9189 82.5728 22.8087L83.0534 23.0909C82.7895 23.483 82.3957 23.679 81.872 23.679C81.677 23.6869 81.4823 23.6556 81.2996 23.5868C81.1169 23.5181 80.9499 23.4134 80.8084 23.279C80.5498 23.005 80.4053 22.6428 80.4043 22.266C80.4033 21.8893 80.546 21.5263 80.8032 21.251C80.9356 21.114 81.0953 21.0064 81.2719 20.9352C81.4486 20.864 81.6382 20.8307 81.8286 20.8375C82.0108 20.8323 82.1919 20.8665 82.3597 20.9379C82.5274 21.0092 82.6777 21.1161 82.8002 21.251C83.054 21.5243 83.1912 21.8859 83.1826 22.2588C83.1818 22.3405 83.1745 22.4221 83.1609 22.5027L83.1568 22.5079Z" fill="black"/>
<path d="M85.1187 20.8408C85.2579 20.8347 85.3969 20.8581 85.5264 20.9096C85.656 20.9611 85.7731 21.0394 85.8701 21.1395C86.0673 21.3628 86.169 21.6545 86.1534 21.952V23.6058H85.5714V22.0109C85.5771 21.9266 85.5656 21.842 85.5377 21.7622C85.5098 21.6825 85.4661 21.6092 85.4091 21.5468C85.3501 21.4914 85.2805 21.4486 85.2044 21.4209C85.1284 21.3932 85.0475 21.3812 84.9667 21.3855C84.8739 21.3807 84.7812 21.3958 84.6947 21.4299C84.6082 21.4639 84.53 21.5161 84.4654 21.583C84.3319 21.7454 84.266 21.9531 84.2814 22.1628V23.6099H83.6943V20.9121H84.2773V21.2584C84.4599 20.98 84.7404 20.8408 85.1187 20.8408Z" fill="black"/>
<path d="M88.2838 20.9098V21.4721H87.6202V22.7662C87.6157 22.8092 87.6201 22.8527 87.6331 22.894C87.646 22.9352 87.6673 22.9733 87.6956 23.006C87.7573 23.06 87.837 23.0887 87.9189 23.0867C88.0422 23.0933 88.1657 23.0933 88.2889 23.0867V23.6097C87.8424 23.6634 87.522 23.6252 87.3277 23.4949C87.1333 23.3637 87.0362 23.1208 87.0362 22.7714V21.4721H86.54V20.9098H87.0362V20.3279L87.6202 20.1553V20.9098H88.2838Z" fill="black"/>
</g>
<defs>
<filter id="filter0_d_127_3209" x="0" y="0.66748" width="122.751" height="32.0203" filterUnits="userSpaceOnUse" color-interpolation-filters="sRGB">
<feFlood flood-opacity="0" result="BackgroundImageFix"/>
<feColorMatrix in="SourceAlpha" type="matrix" values="0 0 0 0 0 0 0 0 0 0 0 0 0 0 0 0 0 0 127 0" result="hardAlpha"/>
<feOffset dy="4"/>
<feGaussianBlur stdDeviation="2"/>
<feComposite in2="hardAlpha" operator="out"/>
<feColorMatrix type="matrix" values="0 0 0 0 0 0 0 0 0 0 0 0 0 0 0 0 0 0 0.25 0"/>
<feBlend mode="normal" in2="BackgroundImageFix" result="effect1_dropShadow_127_3209"/>
<feBlend mode="normal" in="SourceGraphic" in2="effect1_dropShadow_127_3209" result="shape"/>
</filter>
</defs>
</svg>
