<svg width="91" height="49" viewBox="0 0 91 49" fill="none" xmlns="http://www.w3.org/2000/svg">
<g filter="url(#filter0_d_127_3241)">
<path d="M26.6225 11.7717L26.5563 11.7656L26.495 11.7429C26.3461 11.6449 26.2897 11.6099 26.2008 11.5529C26.0997 11.488 26.0746 11.4837 25.9643 11.4052L25.9269 11.3789L25.8331 11.2955C25.6873 11.1668 25.7155 11.2042 25.5917 11.1013C25.4133 10.9524 25.2031 10.8463 25.0401 10.6833C23.4522 9.11199 22.4202 7.24038 22.1193 4.97655C21.9158 3.44445 22.4962 2.08027 23.5969 1.5232C24.3519 1.14078 25.0738 1.09421 25.7639 1.33015C26.1115 1.45322 26.4315 1.64366 26.7054 1.89058C26.9794 2.1375 27.2019 2.43604 27.3603 2.7691C27.8114 3.69571 27.7997 4.71303 27.4725 5.75179C26.9327 7.44462 26.7839 9.23784 27.0373 10.9965C27.0858 11.3427 27.0968 11.6939 26.6225 11.7717ZM22.8952 4.63336C23.508 3.87711 24.0945 3.49225 24.8863 3.47448C25.5371 3.46038 26.0249 3.79622 26.5563 4.20498C26.5875 4.22908 26.625 4.24355 26.6643 4.24664C26.7036 4.24973 26.743 4.2413 26.7776 4.22238C26.8122 4.20346 26.8405 4.17487 26.8591 4.14011C26.8777 4.10535 26.8858 4.06592 26.8823 4.02665C26.821 3.29921 26.5042 2.79116 25.922 2.4253C25.265 2.01469 24.5682 2.01653 23.9106 2.39527C23.1421 2.84387 22.8443 3.55599 22.8952 4.63336Z" fill="#DADADA"/>
<path d="M28.2676 18.0804C28.2347 18.0633 28.2079 18.0364 28.1909 18.0035C28.1739 17.9706 28.1675 17.9332 28.1726 17.8965C28.2014 17.682 28.3099 17.5074 28.4441 17.3272C29.1433 16.3889 29.4467 15.3226 29.4651 14.1227C29.4914 12.403 29.1108 10.6865 29.5043 8.96009C29.8475 7.45373 30.6227 6.39106 32.0782 6.02275C33.5601 5.6434 34.8329 6.07852 35.8055 7.35935C35.8176 7.3751 35.8307 7.39005 35.8447 7.40409C35.9822 7.5377 36.0905 7.69838 36.1628 7.87598C36.7235 9.3327 36.6145 10.7735 35.9832 12.2271C34.8973 14.7343 33.1495 16.5575 30.7827 17.6814C30.0166 18.0467 29.1727 18.5192 28.2676 18.0804ZM34.7545 7.63513L34.586 7.53033C34.5585 7.4734 34.5155 7.4254 34.462 7.39189C34.4084 7.35838 34.3464 7.34072 34.2832 7.34097C34.2716 7.25088 34.2256 7.22514 34.1466 7.26068C33.5006 6.95426 32.8479 6.91137 32.1855 7.20553L31.9894 7.31094C31.9672 7.31129 31.9454 7.31705 31.926 7.32773C31.9065 7.33842 31.89 7.35369 31.8778 7.37222C31.7552 7.35261 31.6498 7.37222 31.6069 7.51869C31.2503 7.74299 30.9641 8.03348 30.8415 8.46246C30.7104 8.51578 30.6717 8.61935 30.6944 8.75663C30.6772 8.77324 30.6639 8.79345 30.6555 8.8158C30.647 8.83815 30.6435 8.8621 30.6454 8.88594L30.5553 9.07653L30.4903 9.34802C30.3788 9.44791 30.3678 9.57354 30.4107 9.71572L30.3733 10.0552C30.1698 10.3543 30.2507 10.6387 30.5044 10.825C30.7894 11.0346 30.9334 10.7955 31.029 10.5357C31.371 9.75065 31.9011 9.15375 32.6426 8.7695L32.8302 8.66531C33.5527 8.43795 34.3047 8.51701 35.0413 8.43489C35.6125 7.92071 35.0719 7.82572 34.7692 7.63819L34.7545 7.63513Z" fill="#DADADA"/>
<path d="M22.8311 4.58897C22.8311 4.58897 22.578 4.83411 22.4211 4.58897C22.2642 4.34383 22.3978 2.78354 23.3404 2.2424C24.115 1.79748 25.2469 1.67859 26.0687 2.38642C26.382 2.66675 26.6074 3.03178 26.7177 3.43744C26.8403 3.8603 26.8262 4.11157 26.7992 4.51604C26.7864 4.71154 26.6589 4.76118 26.5228 4.62268C26.5051 4.60429 26.4867 4.58284 26.4665 4.55833C26.2735 4.31879 26.034 4.12093 25.7623 3.97674C25.0894 3.62436 23.9569 3.35716 22.8311 4.58897Z" fill="white"/>
<path d="M30.9269 10.9211C30.9269 10.9211 30.7296 11.317 30.4366 11.1441C30.1437 10.9713 29.6258 9.25536 30.5236 8.1737C31.2253 7.32676 32.4449 6.61586 33.6761 6.80768C33.9967 6.8614 34.3032 6.9789 34.5775 7.15322C34.8518 7.32755 35.0884 7.55515 35.2732 7.82254C35.465 8.09587 35.5453 8.33794 35.6592 8.6891C35.7285 8.90114 35.598 9.02432 35.3749 8.95017C35.342 8.93959 35.3097 8.92731 35.2781 8.9134C34.9314 8.76345 34.5581 8.68508 34.1805 8.68297C33.2189 8.67929 31.7444 9.0139 30.9269 10.9211Z" fill="white"/>
<path d="M8.47484 20.143L9.79674 19.7808C9.84822 19.7704 9.89908 19.7587 9.94995 19.7452C13.1815 18.8983 16.4154 18.0593 19.7909 18.0593C24.0459 18.0593 26.5794 20.6412 26.3483 24.8931C26.0002 31.3181 22.7326 35.7349 16.7751 38.0526C13.4842 39.3328 9.99346 39.9843 6.5542 40.7736C6.1056 40.8766 5.69623 40.8625 5.27704 40.6903H5.28133C4.92037 40.0106 5.20657 39.6135 5.85618 39.3684C6.80976 39.0074 7.34293 38.405 7.3607 37.2958C7.43302 32.754 7.57336 28.2141 7.67815 23.6729C7.70328 22.5827 7.53107 22.4277 6.4874 22.3829C6.09825 22.3664 5.58898 22.4705 5.48909 21.9178C5.39348 21.3969 5.76732 21.1266 6.20734 20.9648C6.96297 20.6878 7.71799 20.4132 8.47484 20.143ZM14.8233 36.6216L14.8882 36.5977L14.9569 36.5726C19.889 34.7494 22.0186 28.3017 20.7316 24.0983L20.6881 23.9401C20.6501 23.8245 20.617 23.7073 20.5889 23.5884L20.5276 23.3334C20.5108 23.2853 20.489 23.2391 20.4626 23.1955C20.4418 23.1601 20.4233 23.1232 20.4075 23.0852C20.3903 23.0538 20.3758 23.021 20.3639 22.9872C20.3199 22.8752 20.2616 22.7693 20.1905 22.6722C20.0882 22.5128 19.9913 22.4234 19.8933 22.2922C19.8472 22.2326 19.8062 22.1693 19.7707 22.1028L19.7664 22.0955C18.6995 20.4745 16.4601 19.8985 14.3391 20.67C13.2942 21.05 12.7457 21.7296 12.7249 22.8677C12.6489 27.1018 12.541 31.3359 12.4638 35.57C12.4418 36.7614 13.0068 37.1468 14.208 36.8245L14.2692 36.8067L14.3201 36.7883C14.4869 36.7459 14.6507 36.6925 14.8104 36.6284L14.8233 36.6216Z" fill="#DADADA"/>
<path d="M38.4413 34.0003C38.4102 33.9597 38.3858 33.9144 38.369 33.8661C38.3534 33.7898 38.3534 33.7113 38.369 33.635C38.3845 33.5739 38.4106 33.5161 38.4462 33.464C38.5618 33.3093 38.7197 33.1914 38.9009 33.1245C39.3501 32.9523 39.352 32.4602 39.3655 31.7524C39.4212 28.85 39.4427 25.9874 39.5371 23.1812C39.5744 22.0579 39.5873 21.5774 38.8078 21.4965C38.4239 21.4635 38.066 21.2887 37.8039 21.0062C37.6983 20.8863 37.6418 20.7309 37.6458 20.5711C37.6458 20.4884 37.6207 20.4148 37.7911 20.3051C39.7748 19.7438 41.8432 19.4901 43.7448 18.6192C44.221 18.4011 44.5758 18.7375 44.7217 19.2229C44.7909 19.4533 44.8265 19.6935 44.8792 19.9387C45.1193 19.8183 45.3516 19.683 45.5748 19.5336C45.6079 19.5158 45.6207 19.5023 45.682 19.4723C45.9186 19.3393 46.1373 19.2069 46.3917 19.0433C46.4292 19.0214 46.4686 19.0027 46.5093 18.9875C46.9635 18.8086 47.4114 18.6094 47.8735 18.4538C49.7077 17.8342 51.4127 17.8519 52.7634 19.5029C53.4988 20.9057 53.5932 22.4145 53.5392 23.9589C53.4645 26.1149 53.4259 28.2727 53.3658 30.4293C53.3548 30.8344 53.4111 31.1763 53.8273 31.3871C54.1079 31.5299 54.2912 31.7824 54.2164 32.1287C54.1386 32.4896 53.8352 32.576 53.5319 32.6097C51.8772 32.7936 50.2225 32.994 48.5642 33.1374C47.7332 33.2091 47.5224 32.9156 47.8337 32.0686L47.8741 32.0073L47.9526 31.9822C48.6065 31.9295 48.6206 31.5091 48.6359 30.9765C48.6757 29.7993 48.7113 28.6251 48.737 27.4484C48.782 25.4248 48.8228 23.4012 48.8596 21.3776C48.8724 20.7525 48.6414 20.2445 47.9673 20.2292C46.676 20.1991 44.3515 21.7864 44.346 23.4656C44.3319 26.1173 44.2339 28.7691 44.1671 31.4208C44.156 31.8676 44.2112 32.2568 44.5348 32.6287C44.9595 33.119 44.737 33.5676 44.1573 33.6454C42.4333 33.8765 40.7284 34.284 38.9788 34.2902C38.8722 34.2899 38.7674 34.2632 38.6737 34.2127C38.5799 34.1621 38.5001 34.0891 38.4413 34.0003Z" fill="#DADADA"/>
<path d="M86.251 16.5616C85.8563 16.7307 85.7919 17.1653 85.6608 17.5121C84.8267 19.7092 84.0147 21.9154 83.1923 24.1191C83.1267 24.295 83.0311 24.4611 82.9471 24.6321C82.9501 24.6581 82.9463 24.6844 82.9362 24.7085C82.9261 24.7326 82.9101 24.7538 82.8895 24.77C81.9838 27.5247 81.0155 30.2592 79.8382 32.906C78.6125 35.6602 76.5387 37.3056 73.4978 37.4834C73.2441 37.5032 72.989 37.47 72.7489 37.3859C72.5037 37.2934 72.3046 37.1408 72.2905 36.7786C72.2739 36.3251 72.6257 36.1964 72.9646 36.0683C76.1612 34.85 77.73 31.6749 76.7697 28.3269C75.8848 25.2468 74.5298 22.3499 73.2539 19.423C72.9168 18.6483 72.782 17.7223 71.8253 17.3442C71.6016 17.2553 71.5189 16.9649 71.6194 16.6983C71.7463 16.3575 72.0539 16.2871 72.3548 16.2754C73.5566 16.2439 74.756 16.1521 75.9485 16.0002L76.1109 15.9837C76.6508 15.9408 77.1901 15.9016 77.7276 15.8519C78.0481 15.8219 78.2981 15.8795 78.4532 16.0621C78.5403 16.1713 78.5854 16.3082 78.5801 16.4478C78.5748 16.5874 78.5195 16.7204 78.4244 16.8227C78.1645 17.1119 77.8232 17.3626 78.0021 17.8614C78.8227 20.1369 79.6397 22.4142 80.5246 24.8778C80.9787 23.7361 81.3636 22.7574 81.6277 21.7524C81.6541 21.6519 81.6859 21.5532 81.7178 21.4545C81.7662 21.3068 81.806 21.1579 81.8624 21.0114C81.9047 20.8778 81.958 20.7792 82.0279 20.561C82.0818 20.3919 82.1149 20.2184 82.1731 20.0511C82.4716 19.1987 82.7615 18.3437 83.0807 17.5005C83.2223 17.1236 83.0593 16.8999 82.8472 16.6223C82.3343 15.9531 82.5451 15.4793 83.3835 15.4187C84.3113 15.3506 85.2404 15.3218 86.1682 15.2814C86.3266 15.2745 86.4822 15.325 86.6064 15.4236V15.4266C86.805 15.9022 86.8399 16.3103 86.251 16.5616Z" fill="#DADADA"/>
<path d="M72.1479 28.1575C72.0909 28.0651 72.0029 27.9959 71.8997 27.9623C71.7965 27.9286 71.6846 27.9326 71.5841 27.9736C71.3053 28.0888 71.0595 28.2739 70.7948 28.4241C69.8951 28.9309 69.5201 28.7237 69.5464 27.704C69.6157 25.1337 69.7045 22.5641 69.7983 19.9957C69.8308 19.096 69.7309 18.1915 69.9 17.2992C69.7321 16.6183 69.2688 16.3186 68.5959 16.2665C67.6153 16.1875 66.6869 16.3205 65.873 16.9192C65.6953 17.0491 65.5544 17.1956 65.2957 17.0718C63.1042 16.0263 61.1603 16.6741 59.3169 17.9696C59.0105 18.2411 58.7972 18.428 58.5343 18.675C58.4883 18.7295 58.4424 18.7822 58.3964 18.8362L58.2561 18.9925C58.2279 19.0445 58.1672 19.0868 58.1562 19.1205C58.0998 19.1873 58.0789 19.218 58.0195 19.2934V19.2983C57.8577 19.5648 57.7247 19.7971 57.5666 20.0502C57.5237 20.1182 57.4771 20.185 57.4306 20.2512C57.3697 20.3377 57.3134 20.4273 57.262 20.5196C57.2122 20.6177 57.1621 20.7158 57.1119 20.8138C57.0689 20.8975 57.0308 20.9837 56.9979 21.0718C56.9556 21.1846 56.9127 21.2961 56.8612 21.4107C56.8042 21.5664 56.7724 21.6258 56.719 21.7784C56.7019 21.8299 56.6964 21.8716 56.6829 21.92C56.5885 22.2718 56.5297 22.4605 56.4378 22.816L56.431 22.8374C56.3717 23.0432 56.3291 23.2535 56.3035 23.4662L56.2472 23.829C56.2144 24.0337 56.1965 24.2406 56.1938 24.448C56.1773 25.6191 56.0835 26.7939 56.3636 27.9509C56.6333 29.0626 56.898 30.1651 57.7695 30.9839C57.8271 31.0366 57.8847 31.0893 57.9404 31.142C59.1048 32.0613 60.1172 32.2598 61.3871 31.9534C62.8836 31.5918 64.0406 30.6052 65.0341 29.4487C65.1395 29.3262 65.2112 29.241 65.3956 29.2036C65.4643 29.279 65.509 29.4254 65.5421 29.5468C65.8957 30.8644 66.5619 31.3528 67.9034 31.2787C69.6757 31.1806 71.6154 29.9414 72.1871 28.5883C72.2156 28.5203 72.2272 28.4464 72.2211 28.3729C72.2151 28.2994 72.1914 28.2285 72.1522 28.1661L72.1479 28.1575ZM65.414 26.8399C65.3564 27.609 65.0341 27.9087 64.5867 28.269L64.5573 28.3003C64.2159 28.6257 63.9181 28.7648 63.5816 28.9652C63.5336 28.9945 63.4837 29.0205 63.4321 29.043C63.2454 29.1236 63.0488 29.179 62.8474 29.2079C62.5496 29.2416 62.4926 29.2508 62.2524 29.2079L62.2193 29.1999C61.1603 28.9615 60.8183 28.0803 60.6455 27.2106C60.151 24.7207 60.4286 22.3079 61.721 20.079C62.1408 19.3583 62.7102 18.7583 63.5069 18.444C64.6645 17.9886 65.5967 18.5825 65.5783 19.7922C65.5427 22.1424 65.5905 24.4964 65.4159 26.8399H65.414Z" fill="#DADADA"/>
<path d="M30.0762 35.9533C29.5596 35.9662 29.2109 35.968 29.0994 35.5574C29.0099 35.2283 29.146 34.9783 29.4469 34.8079C29.9984 34.4947 30.0732 33.9646 30.0867 33.3984C30.1606 30.3097 30.2395 27.2213 30.3232 24.1335C30.3367 23.6199 30.2619 23.1425 29.7815 22.8434C29.5229 22.681 29.3874 22.4757 29.4371 22.165C29.491 21.8335 29.7478 21.7091 30.0199 21.6747C31.6224 21.4786 33.0743 20.8597 34.4893 20.1267C34.8098 19.9612 35.1518 19.8093 35.4527 20.1598C35.7328 20.4864 35.6225 20.8125 35.4239 21.1403C35.1868 21.5109 35.0545 21.9386 35.0409 22.3783C34.9669 25.8776 34.8903 29.3769 34.8111 32.8762C34.8019 33.2917 34.8503 33.6662 35.1248 34.0284C35.525 34.5566 35.3822 34.985 34.7406 35.1143C33.1343 35.4342 31.5164 35.6971 30.0762 35.9533Z" fill="#DADADA"/>
<path d="M7.3511 19.3301L8.67299 18.9679C8.72386 18.9569 8.77534 18.9453 8.82559 18.9318C12.0577 18.0854 15.2917 17.2458 18.6672 17.2458C22.9221 17.2458 25.455 19.8284 25.2246 24.0802C24.8759 30.5046 21.6088 34.9214 15.6508 37.2391C12.3604 38.52 8.86971 39.1708 5.42984 39.9626C4.98124 40.0656 4.57187 40.0515 4.1533 39.8793H4.15697C3.79662 39.1978 4.08466 38.7982 4.73549 38.5531C5.68969 38.1927 6.22224 37.5903 6.24063 36.4804C6.31294 31.9411 6.45145 27.3994 6.55563 22.8601C6.58014 21.7692 6.40793 21.6142 5.36488 21.5694C4.97512 21.5529 4.46646 21.6577 4.36656 21.1049C4.27219 20.5834 4.64602 20.3137 5.08788 20.1513C5.84167 19.8764 6.59608 19.6026 7.3511 19.3301ZM13.702 35.8082L13.7663 35.7843L13.8349 35.7591C18.7671 33.9365 20.8973 27.4858 19.6073 23.2848L19.5638 23.1273C19.5254 23.0112 19.4923 22.8938 19.4645 22.7749L19.4032 22.52C19.3865 22.4718 19.3647 22.4256 19.3382 22.3821C19.3175 22.3469 19.2992 22.3102 19.2837 22.2724C19.2658 22.2403 19.2504 22.2069 19.2377 22.1725C19.1942 22.0603 19.1361 21.9544 19.0649 21.8575C18.962 21.6981 18.8657 21.6087 18.7671 21.4769C18.7207 21.4175 18.6797 21.3541 18.6445 21.2875L18.6396 21.2802C17.5788 19.6604 15.3401 19.0856 13.219 19.8565C12.1735 20.2365 11.6257 20.9161 11.6048 22.0542C11.5288 26.2889 11.421 30.5224 11.3431 34.7565C11.3217 35.9479 11.8867 36.3334 13.0873 36.011L13.1486 35.9932L13.1994 35.9755C13.3662 35.9328 13.53 35.8792 13.6897 35.8149L13.702 35.8082Z" fill="black"/>
<path d="M37.321 33.1874C37.2903 33.1463 37.2659 33.1008 37.2487 33.0525C37.234 32.9761 37.2353 32.8974 37.2524 32.8215C37.268 32.7604 37.2941 32.7026 37.3296 32.6505C37.4448 32.4955 37.6029 32.3777 37.7843 32.3116C38.2329 32.1388 38.2348 31.6467 38.2489 30.9388C38.3047 28.0364 38.3261 25.1739 38.4199 22.3677C38.4572 21.2443 38.4707 20.7645 37.6906 20.683C37.3066 20.6501 36.9487 20.4753 36.6868 20.1927C36.5814 20.0726 36.5249 19.9173 36.5286 19.7576C36.5286 19.6748 36.5035 19.6013 36.6745 19.4916C38.6583 18.9302 40.726 18.6771 42.6282 17.8063C43.1044 17.5881 43.4592 17.924 43.6045 18.4093C43.6737 18.6355 43.7105 18.8806 43.7626 19.1257C44.0029 19.0057 44.2352 18.8704 44.4582 18.7207C44.4927 18.6982 44.5286 18.6778 44.5654 18.6594C44.802 18.5258 45.0208 18.394 45.2745 18.2304C45.3121 18.2085 45.3515 18.1896 45.3921 18.174C45.8469 17.9951 46.2942 17.7959 46.7563 17.6402C48.5912 17.0213 50.2961 17.0384 51.6462 18.69C52.3816 20.0922 52.476 21.6016 52.422 23.1454C52.3467 25.3019 52.3087 27.4591 52.2486 29.6157C52.237 30.0214 52.2939 30.3628 52.7101 30.5742C52.9907 30.7164 53.174 30.9689 53.0986 31.3151C53.0208 31.6761 52.7174 31.7625 52.4141 31.7968C50.7594 31.9807 49.1047 32.1811 47.4464 32.3245C46.6154 32.3962 46.4046 32.1026 46.7159 31.2551L46.7569 31.1938L46.8354 31.1687C47.4893 31.116 47.5034 30.6955 47.5187 30.1636C47.5524 28.9882 47.5892 27.8128 47.6149 26.6367C47.6603 24.6143 47.6977 22.592 47.7375 20.5659C47.7497 19.9414 47.5187 19.4328 46.8452 19.4175C45.5539 19.3874 43.2294 20.9747 43.2233 22.6539C43.2092 25.3062 43.1118 27.958 43.045 30.6098C43.0339 31.0559 43.0891 31.4451 43.4127 31.817C43.8368 32.3073 43.6149 32.7565 43.0345 32.8344C41.3112 33.0648 39.6063 33.4729 37.8561 33.4785C37.7498 33.4775 37.6455 33.4505 37.5522 33.3997C37.4589 33.3489 37.3795 33.276 37.321 33.1874Z" fill="black"/>
<path d="M25.8178 11.3884L25.7516 11.3822L25.6903 11.3596C25.542 11.2615 25.485 11.2266 25.3967 11.1696C25.295 11.1046 25.2699 11.1003 25.1596 11.0219L25.1228 10.9955L25.026 10.914C24.8801 10.7853 24.9083 10.8227 24.7845 10.7197C24.6062 10.5708 24.396 10.4648 24.2329 10.3018C22.6457 8.73047 21.6131 6.85885 21.3122 4.59502C21.1087 3.06292 21.6897 1.69874 22.7897 1.14167C23.5386 0.762321 24.255 0.712681 24.9402 0.943109C25.6394 1.18603 26.2146 1.69495 26.5409 2.35938C27.0048 3.29274 26.9962 4.32047 26.6635 5.36781C26.1243 7.06077 25.9756 8.85384 26.2284 10.6125C26.2792 10.9612 26.2903 11.3099 25.8178 11.3884ZM22.0886 4.24938C22.7015 3.49314 23.2879 3.10827 24.0797 3.0905C24.8715 3.07273 25.4121 3.56484 26.0843 4.07962C26.1236 3.11256 25.8079 2.47643 25.1154 2.04132C24.4609 1.63072 23.7617 1.63255 23.1047 2.01374C22.3356 2.45989 22.0378 3.17201 22.0886 4.24938Z" fill="black"/>
<path d="M85.1304 15.749C84.7357 15.9187 84.6714 16.3526 84.5396 16.6995C83.7061 18.8965 82.8935 21.1033 82.0717 23.3065C82.0061 23.4824 81.9105 23.6485 81.8266 23.8194C81.8295 23.8455 81.8257 23.8719 81.8156 23.8961C81.8055 23.9204 81.7895 23.9416 81.769 23.9579C80.8626 26.7121 79.8943 29.4465 78.717 32.094C77.4913 34.8475 75.4175 36.493 72.3766 36.6707C72.1231 36.6905 71.8683 36.6573 71.6283 36.5733C71.3832 36.4807 71.184 36.3281 71.1693 35.9665C71.1533 35.5124 71.5051 35.3844 71.8434 35.2557C75.04 34.0373 76.6082 30.8622 75.6479 27.5143C74.7636 24.4347 73.4086 21.5372 72.1327 18.6103C71.7956 17.8357 71.6608 16.9103 70.7035 16.5322C70.4798 16.4433 70.3971 16.1522 70.4982 15.8856C70.6245 15.5455 70.9321 15.4744 71.2336 15.4634C72.436 15.4235 73.6329 15.3463 74.8249 15.187C74.8794 15.1821 74.9333 15.1753 74.9879 15.1704C75.5272 15.1275 76.0665 15.0883 76.6039 15.0387C76.9251 15.0093 77.1751 15.0669 77.3302 15.2489C77.417 15.3583 77.4618 15.4953 77.4564 15.6349C77.451 15.7745 77.3958 15.9076 77.3007 16.01C77.0409 16.2987 76.6995 16.5493 76.8791 17.0482C77.6991 19.3243 78.5166 21.6016 79.4009 24.0646C79.8551 22.9229 80.2399 21.9448 80.5041 20.9391C80.5304 20.8386 80.5653 20.7399 80.5948 20.6413C80.6426 20.4936 80.6824 20.3446 80.7388 20.1988C80.7817 20.0646 80.835 19.9659 80.9042 19.7477C80.9588 19.5786 80.9913 19.4058 81.0501 19.2379C81.3479 18.3854 81.6384 17.5305 81.9577 16.6872C82.0993 16.3109 81.9363 16.0872 81.7242 15.809C81.2113 15.1398 81.4215 14.6667 82.2598 14.6054C83.1877 14.5374 84.1174 14.5086 85.0452 14.4687C85.2034 14.4613 85.3589 14.5116 85.4828 14.6103V14.614C85.6844 15.0902 85.7187 15.4977 85.1304 15.749Z" fill="black"/>
<path d="M71.0274 27.5588C70.9703 27.4666 70.8825 27.3975 70.7794 27.3638C70.6763 27.3302 70.5646 27.3341 70.4642 27.3749C70.1853 27.4902 69.9396 27.6758 69.6742 27.826C68.7752 28.3322 68.4001 28.1251 68.4265 27.1059C68.4951 24.5357 68.584 21.9654 68.6777 19.397C68.7108 18.498 68.6103 17.5934 68.7801 16.7005C68.6122 16.0196 68.1482 15.72 67.476 15.6679C66.4954 15.5888 65.567 15.7224 64.7531 16.3205C64.5754 16.4505 64.4338 16.5969 64.1758 16.4737C61.9837 15.4282 60.0404 16.076 58.1969 17.3716C57.8905 17.643 57.6773 17.83 57.4143 18.0769C57.3684 18.1315 57.3224 18.1836 57.2758 18.2381L57.1361 18.3907C57.1079 18.4434 57.0473 18.4851 57.0362 18.5194C56.9798 18.5862 56.9584 18.6162 56.8996 18.6922L56.8965 18.6971C56.7341 18.9637 56.6017 19.196 56.443 19.4485C56.4001 19.5171 56.3535 19.5839 56.3069 19.6495C56.2464 19.7363 56.1904 19.826 56.139 19.9185C56.0888 20.0158 56.0385 20.1138 55.9883 20.2127C55.9459 20.2964 55.908 20.3823 55.8749 20.4701C55.832 20.5828 55.7897 20.6944 55.7376 20.809C55.6812 20.9646 55.6494 21.0241 55.5954 21.1767C55.5783 21.2288 55.5734 21.2698 55.5593 21.3182C55.4649 21.6706 55.4067 21.8594 55.3141 22.2142L55.308 22.2363C55.2492 22.442 55.207 22.652 55.1818 22.8644L55.126 23.2266C55.0927 23.4313 55.0747 23.6382 55.0721 23.8456C55.0555 25.0173 54.9624 26.1915 55.2418 27.3492C55.5115 28.4609 55.7762 29.5634 56.6477 30.3821C56.7053 30.4349 56.7629 30.4876 56.8187 30.5403C57.9831 31.4595 58.9955 31.6581 60.2653 31.3517C61.7624 30.9901 62.9195 30.0034 63.9129 28.847C64.0177 28.7244 64.0894 28.6392 64.2745 28.6018C64.3431 28.6772 64.3879 28.8243 64.4209 28.9457C64.7739 30.2626 65.4401 30.7511 66.7822 30.6775C68.5539 30.5789 70.4942 29.3403 71.0654 27.9872C71.0938 27.919 71.1054 27.8451 71.0994 27.7715C71.0933 27.6979 71.0697 27.6269 71.0304 27.5643L71.0274 27.5588ZM64.2941 26.2418C64.2328 27.0109 63.9135 27.3106 63.4668 27.6709L63.4367 27.7022C63.0954 28.0276 62.7981 28.1667 62.4617 28.3671C62.4135 28.3965 62.3633 28.4225 62.3116 28.445C62.125 28.5256 61.9286 28.581 61.7275 28.6098C61.4297 28.6435 61.3721 28.6527 61.1318 28.6098L61.0994 28.6018C60.0404 28.3635 59.6984 27.4822 59.5256 26.612C59.0304 24.1226 59.3086 21.7092 60.6011 19.4803C61.0185 18.7621 61.5859 18.1621 62.3833 17.8477C63.5409 17.3924 64.473 17.9856 64.4553 19.196C64.4209 21.5438 64.4706 23.8983 64.2941 26.2418Z" fill="black"/>
<path d="M28.9549 35.1404C28.4377 35.1539 28.0896 35.1551 27.978 34.7451C27.888 34.416 28.0246 34.166 28.3255 33.995C28.8771 33.6818 28.9512 33.1517 28.9653 32.5854C29.0397 29.4971 29.1185 26.4088 29.2019 23.3205C29.2154 22.807 29.1406 22.3296 28.6601 22.0305C28.4009 21.8687 28.2655 21.6628 28.3157 21.3527C28.369 21.0205 28.6258 20.8961 28.8985 20.8624C30.5011 20.6669 31.9529 20.048 33.368 19.315C33.6885 19.1489 34.0298 18.9975 34.3307 19.3475C34.6108 19.6741 34.5005 20.0008 34.3025 20.328C34.0653 20.6987 33.9328 21.1267 33.9189 21.5666C33.8454 25.0659 33.769 28.5652 33.6897 32.0645C33.6799 32.48 33.7289 32.8545 34.0029 33.2167C34.4037 33.7449 34.2609 34.1733 33.6192 34.302C32.0124 34.6213 30.3939 34.8842 28.9549 35.1404Z" fill="black"/>
<path d="M27.4956 17.6963C27.4627 17.6792 27.436 17.6524 27.419 17.6195C27.402 17.5865 27.3955 17.5492 27.4006 17.5125C27.4294 17.298 27.5379 17.1233 27.6721 16.9432C28.3714 16.0049 28.6747 14.9385 28.6931 13.7386C28.7194 12.019 28.3389 10.3024 28.7323 8.57605C29.0755 7.06968 29.8507 6.00702 31.3062 5.6387C32.7924 5.26181 34.064 5.69631 35.0391 6.97531C35.0511 6.99106 35.0642 7.006 35.0783 7.02004C35.2158 7.15365 35.3241 7.31433 35.3963 7.49193C35.9571 8.94865 35.848 10.3894 35.2168 11.8462C34.1308 14.3533 32.383 16.1765 30.0162 17.3004C29.2496 17.6626 28.4038 18.1351 27.4956 17.6963ZM33.9856 7.25109L33.8171 7.14629C33.7896 7.08936 33.7466 7.04136 33.6931 7.00785C33.6395 6.97433 33.5775 6.95668 33.5143 6.95692C33.5027 6.86683 33.4567 6.8411 33.3776 6.87664C32.7317 6.57022 32.079 6.52732 31.4166 6.82148L31.2204 6.92689C31.1983 6.92735 31.1766 6.93316 31.1571 6.94383C31.1377 6.9545 31.1212 6.96972 31.1089 6.98818C30.9863 6.96857 30.8809 6.98818 30.838 7.13465C30.4807 7.36017 30.1946 7.64821 30.0714 8.08148C29.9402 8.1348 29.9016 8.23837 29.9243 8.37565C29.9071 8.39226 29.8938 8.41247 29.8853 8.43482C29.8768 8.45717 29.8734 8.48112 29.8753 8.50496L29.7852 8.69555L29.7202 8.96704C29.6087 9.06693 29.5976 9.19256 29.6405 9.33474L29.6038 9.67425C29.3997 9.97332 29.4812 10.2577 29.7343 10.444C30.0193 10.6536 30.1633 10.4146 30.2589 10.1547C30.6009 9.36967 31.131 8.77277 31.8725 8.38852L32.06 8.28433C32.7826 8.05697 33.5345 8.13603 34.2712 8.05391C34.8423 7.53973 34.3018 7.44474 33.9991 7.25721L33.9856 7.25109Z" fill="black"/>
<path d="M22.3 4.24967C22.3 4.24967 22.0469 4.49481 21.8894 4.24967C21.7319 4.00454 21.8637 2.53801 22.8087 1.9025C23.5508 1.40426 24.7152 1.3393 25.5383 2.04651C25.8508 2.32676 26.0757 2.69129 26.186 3.09631C26.3086 3.51856 26.2945 3.76676 26.2675 4.17491C26.2547 4.36979 26.1272 4.42004 25.9918 4.28093C25.974 4.26254 25.955 4.24171 25.9348 4.21965C25.7419 3.98027 25.5026 3.78243 25.2312 3.63806C24.5583 3.28445 23.4283 3.01725 22.3 4.24967Z" fill="white"/>
<path d="M30.2214 10.5371C30.2214 10.5371 30.0234 10.933 29.7311 10.7602C29.4388 10.5874 29.1513 9.02711 29.8181 7.78979C30.3206 6.85827 31.7394 6.23195 32.9706 6.42377C33.2912 6.47735 33.5977 6.5948 33.8721 6.76913C34.1464 6.94346 34.3829 7.17113 34.5676 7.43863C34.76 7.71196 34.8403 7.95403 34.9543 8.30518C35.023 8.51723 34.893 8.64041 34.6693 8.56625C34.6367 8.55566 34.6045 8.54339 34.5731 8.52948C34.2265 8.37958 33.8532 8.30121 33.4755 8.29906C32.5134 8.29538 31.0383 8.62876 30.2214 10.5371Z" fill="white"/>
</g>
<defs>
<filter id="filter0_d_127_3241" x="0" y="0.804199" width="90.7368" height="48.0342" filterUnits="userSpaceOnUse" color-interpolation-filters="sRGB">
<feFlood flood-opacity="0" result="BackgroundImageFix"/>
<feColorMatrix in="SourceAlpha" type="matrix" values="0 0 0 0 0 0 0 0 0 0 0 0 0 0 0 0 0 0 127 0" result="hardAlpha"/>
<feOffset dy="4"/>
<feGaussianBlur stdDeviation="2"/>
<feComposite in2="hardAlpha" operator="out"/>
<feColorMatrix type="matrix" values="0 0 0 0 0 0 0 0 0 0 0 0 0 0 0 0 0 0 0.25 0"/>
<feBlend mode="normal" in2="BackgroundImageFix" result="effect1_dropShadow_127_3241"/>
<feBlend mode="normal" in="SourceGraphic" in2="effect1_dropShadow_127_3241" result="shape"/>
</filter>
</defs>
</svg>
