<svg width="68" height="41" viewBox="0 0 68 41" fill="none" xmlns="http://www.w3.org/2000/svg">
<path d="M25.7404 40.4306C25.3343 40.3266 24.927 40.2288 24.5233 40.1149C23.4523 39.8115 22.619 39.1887 22.3516 38.0892C21.9727 36.5229 22.7701 34.7263 24.3487 34.2162C24.8767 34.0593 25.4209 33.9633 25.9707 33.9302C26.5713 33.8807 27.1792 33.9029 27.7834 33.9128C28.0843 33.9128 28.2044 33.8225 28.1549 33.5043C28.0657 32.848 27.6844 32.4357 27.0083 32.4444C26.3323 32.453 25.681 32.557 25.0186 32.6301C24.6744 32.6672 24.3314 32.7192 23.9897 32.7774C23.742 32.8208 23.5984 32.7254 23.5452 32.4828C23.4354 32.0641 23.3474 31.6401 23.2814 31.2124C23.2641 31.0539 23.3879 30.758 23.5068 30.7171C25.4396 30.1302 27.3909 29.8033 29.3485 30.5933C30.2264 30.9449 30.7216 31.6445 30.8467 32.5744C30.9176 33.0825 30.959 33.5943 30.9705 34.1072C30.9916 35.624 30.9878 37.1408 30.9916 38.6575C30.9916 39.4005 30.8888 39.6048 30.1929 39.8301C29.5875 40.027 28.9548 40.1273 28.327 40.2721C28.1314 40.3192 27.937 40.3761 27.7426 40.4269L25.7404 40.4306ZM28.1499 36.8857C28.1624 36.6175 28.1586 36.3487 28.1388 36.0809C28.1264 35.9794 27.9865 35.8135 27.9073 35.8147C27.2817 35.8117 26.6566 35.846 26.0351 35.9175C25.5498 35.9856 25.2142 36.4511 25.1857 36.9315C25.1548 37.4664 25.369 37.8725 25.915 38.0001C26.4124 38.1062 26.923 38.1358 27.4293 38.088C28.1487 38.0335 28.1462 37.9964 28.1487 37.2708L28.1499 36.8857Z" fill="black"/>
<path d="M54.5461 40.4306C54.218 40.3303 53.8898 40.2325 53.563 40.1284C52.0227 39.6332 51.1832 38.5188 50.9157 36.9884C50.7758 36.1886 50.7696 35.3615 50.7573 34.5443C50.7275 32.5545 52.2815 30.6898 54.2353 30.3035C55.5044 30.0559 56.7364 30.0707 57.9053 30.6972C59.0741 31.3238 59.7353 32.3725 59.9656 33.6503C60.0985 34.4439 60.1598 35.2478 60.1488 36.0524C60.1488 38.0334 58.819 39.7137 56.8949 40.2324L56.1681 40.4306H54.5461ZM53.5692 35.2773C53.636 35.7057 53.6992 36.1341 53.7697 36.5612C53.8936 37.3314 54.5003 37.9418 55.1763 37.9901C56.0579 38.0533 56.7463 37.5889 57.0063 36.7742C57.3253 35.7787 57.3188 34.7075 56.9878 33.7159C56.807 33.1464 56.4653 32.6647 55.8115 32.578C55.0983 32.4815 54.4854 32.682 54.078 33.3209C53.7016 33.9165 53.615 34.5839 53.5692 35.2773Z" fill="black"/>
<path d="M46.3614 40.4305C46.0741 40.3327 45.7856 40.2336 45.4947 40.1333C44.7703 39.8857 44.2565 39.4053 44.2008 38.624C44.0992 37.2694 44.0485 35.9087 44.0039 34.5504C43.9853 33.987 44.0311 33.4199 44.0621 32.8553C44.077 32.5978 43.9668 32.5123 43.7241 32.516C43.4307 32.5354 43.136 32.5242 42.845 32.4826C42.2531 32.3588 42.4884 31.8549 42.4624 31.4995C42.4413 31.1937 42.3447 30.8024 42.8586 30.7269C43.0963 30.6922 43.3179 30.5523 43.5569 30.5164C44.046 30.4421 44.176 30.1363 44.176 29.6979C44.1641 29.3642 44.184 29.03 44.2354 28.7C44.2689 28.5254 44.4051 28.2926 44.5536 28.2344C45.1244 28.0091 45.7175 27.8382 46.3057 27.6611C46.6313 27.5633 46.8232 27.6611 46.8195 28.0425C46.8121 28.6715 46.8406 29.3005 46.8282 29.9295C46.8208 30.3009 46.952 30.4248 47.3235 30.4111C47.8246 30.3893 48.3266 30.3984 48.8266 30.4384C48.8913 30.4525 48.9515 30.4825 49.0017 30.5257C49.0518 30.569 49.0904 30.6241 49.1139 30.686C49.1485 31.1441 49.1386 31.6072 49.1399 32.0691C49.1399 32.3749 48.9777 32.5024 48.6768 32.4987C48.1877 32.49 47.6986 32.4987 47.2095 32.4925C46.9297 32.4863 46.8245 32.5965 46.8257 32.8813C46.8344 34.2433 46.8257 35.6053 46.8257 36.9673C46.8257 37.7102 47.1241 37.9875 47.8782 37.9578C48.2236 37.943 48.5653 37.8662 48.9108 37.8402C49.4556 37.7993 49.5373 37.8402 49.6624 38.364C49.7459 38.765 49.7984 39.172 49.8196 39.5811C49.8309 39.6451 49.8285 39.7108 49.8126 39.7739C49.7967 39.8369 49.7676 39.8959 49.7272 39.9469C49.6869 39.9979 49.6362 40.0398 49.5785 40.0698C49.5208 40.0998 49.4574 40.1172 49.3925 40.1209C49.0879 40.1705 48.7845 40.22 48.4836 40.2831C48.3128 40.3178 48.1456 40.3785 47.976 40.428L46.3614 40.4305Z" fill="black"/>
<path d="M24.2952 20.9193C24.6072 20.424 24.8969 19.9807 25.1792 19.5276C27.7109 15.4713 30.2421 11.4142 32.773 7.35626C33.9876 5.40861 35.2122 3.46715 36.412 1.51206C36.7661 0.93631 37.2787 0.618098 37.8916 0.419989C38.2977 0.287504 39.0444 0.735725 39.3007 1.24585C40.0089 2.64912 40.7142 4.05652 41.4167 5.46804C43.0462 8.71702 44.6748 11.9656 46.3026 15.2137C47.7108 18.0294 49.1165 20.8462 50.5198 23.6643C50.708 24.042 50.9197 24.4072 51.0844 24.7972C51.2491 25.1873 51.1562 25.3854 50.7402 25.4015C49.7645 25.4411 48.7876 25.4349 47.8119 25.4126C47.4107 25.4027 47.1272 25.1439 46.9452 24.7935C46.4837 23.8806 46.0231 22.9672 45.5634 22.0534C43.9009 18.7516 42.2384 15.4478 40.576 12.1418C39.6833 10.3712 38.7769 8.60682 37.8904 6.83251C37.7356 6.52297 37.6266 6.5725 37.4768 6.81394C36.7546 7.97535 36.0315 9.138 35.3075 10.3019C33.6401 12.9788 31.9723 15.6549 30.3041 18.3302C29.0064 20.4215 27.7249 22.5215 26.4224 24.6103C26.2211 24.9231 25.9847 25.2118 25.7178 25.4708C25.5459 25.6602 25.3124 25.7826 25.0588 25.8164C24.8052 25.8501 24.5479 25.7931 24.3323 25.6553C23.7748 25.3144 23.2463 24.928 22.7524 24.5001C20.333 22.4459 17.9235 20.3732 15.5153 18.3092C15.0571 17.9179 14.9927 17.9266 14.7142 18.4813C13.9849 19.9337 13.2704 21.3935 12.5424 22.8471C11.5048 24.9173 10.4561 26.9814 9.4197 29.0529C7.76385 32.3621 6.11047 35.6722 4.45956 38.9831C4.35888 39.1898 4.24728 39.3911 4.12525 39.586C3.91229 39.9179 3.62379 40.1247 3.20529 40.1209C2.29275 40.1135 1.37897 40.1321 0.466436 40.1061C-0.00778672 40.0925 -0.0969356 39.96 0.0949821 39.5303C0.49739 38.6438 0.918371 37.7696 1.35173 36.9017C2.703 34.1991 4.0588 31.4995 5.41915 28.8027C6.94211 25.7742 8.46631 22.7464 9.99174 19.7195C10.9154 17.8795 11.8304 16.0347 12.7578 14.1972C12.8792 13.9567 13.0244 13.729 13.1912 13.5174C13.7744 12.7745 14.5371 12.6507 15.2738 13.2438C16.2743 14.0499 17.2425 14.8968 18.2182 15.7325C20.1308 17.3694 22.0417 19.0092 23.951 20.6518C24.0376 20.7261 24.1317 20.793 24.2952 20.9193Z" fill="black"/>
<path d="M36.2228 33.6107C36.3218 33.4634 36.4085 33.3074 36.5199 33.1712C37.0536 32.5125 37.6169 31.876 38.1234 31.1975C38.5382 30.6416 39.0409 30.3766 39.733 30.4175C40.284 30.4484 40.8387 30.4175 41.3909 30.4274C41.5845 30.455 41.7751 30.5001 41.9605 30.5623C41.6658 30.9474 41.438 31.2656 41.1891 31.5665C40.6319 32.2401 40.0562 32.8975 39.5089 33.5785C39.4666 33.6417 39.4391 33.7135 39.4284 33.7888C39.4177 33.864 39.424 33.9407 39.447 34.0131C40.0933 35.4185 40.7607 36.8139 41.4182 38.2143C41.646 38.6996 41.8664 39.1899 42.0831 39.6803C42.2069 39.97 42.0979 40.1347 41.7884 40.1396C41.0678 40.1508 40.3471 40.1483 39.6277 40.1545C39.3157 40.1545 39.1325 39.9985 39.0087 39.7224C38.5794 38.7269 38.1456 37.7322 37.7073 36.7384C37.6108 36.5192 37.4845 36.3149 37.3359 36.0276C36.744 36.7049 35.9739 37.1717 36.0123 38.1771C36.0333 38.6724 36.0284 39.18 36.0259 39.6815C36.0259 39.9948 35.8909 40.1978 35.5418 40.1941C34.9747 40.1867 34.4088 40.1941 33.843 40.1755C33.2771 40.157 33.2041 40.0431 33.2028 39.5032C33.1954 35.5559 33.1863 31.6086 33.1756 27.6613C33.1756 27.4817 33.1694 27.301 33.1756 27.1214C33.1843 26.8515 33.3279 26.667 33.5953 26.6608C34.3011 26.6447 35.0093 26.6472 35.7163 26.6608C36.0246 26.6608 36.0259 26.9159 36.0271 27.14C36.0271 28.3097 36.0271 29.4797 36.0271 30.6502C36.0271 31.4736 36.0271 32.297 36.0271 33.1192C36.0271 33.2504 36.0482 33.3804 36.0593 33.5117L36.2228 33.6107Z" fill="black"/>
<path d="M12.5976 36.3939C12.553 35.0208 12.4601 33.6984 12.4824 32.3773C12.4958 31.3415 12.5952 30.3086 12.7796 29.2893C12.9901 28.1526 14.0747 27.2933 15.3352 27.2574C17.3522 27.2005 19.3716 27.2364 21.3899 27.2252C21.6548 27.2252 21.7725 27.349 21.7774 27.588C21.7898 28.1402 21.7997 28.6925 21.7985 29.2435C21.7985 29.5084 21.6672 29.6843 21.3849 29.7078C21.1026 29.7313 20.8228 29.7709 20.5417 29.7685C19.3332 29.7598 18.1235 29.7226 16.9151 29.7251C15.7066 29.7276 15.4726 29.9727 15.4677 31.175C15.4677 31.4586 15.4837 31.7421 15.4677 32.0232C15.4516 32.3042 15.5828 32.4194 15.8502 32.4169C16.5312 32.4169 17.2122 32.4045 17.8945 32.4095C18.7946 32.4169 19.6936 32.4442 20.5937 32.4454C20.907 32.4454 21.0605 32.615 21.0642 32.8825C21.0729 33.4197 21.053 33.957 21.0048 34.4921C20.9829 34.5635 20.9438 34.6284 20.8909 34.6811C20.838 34.7338 20.7729 34.7727 20.7014 34.7942C20.3748 34.8543 20.043 34.8824 19.7109 34.8784C18.5668 34.871 17.4215 34.8314 16.2774 34.8338C15.4726 34.8338 15.4813 34.8574 15.4825 35.6622C15.4825 36.9982 15.4639 38.3354 15.4738 39.6714C15.4738 39.9995 15.3575 40.1568 15.0368 40.153C14.3075 40.1456 13.5794 40.1431 12.8514 40.1085C12.7647 40.1085 12.6174 39.9166 12.6161 39.8113C12.5914 38.6561 12.5976 37.5009 12.5976 36.3939Z" fill="black"/>
<path d="M64.7588 36.6823C64.7588 37.6332 64.7588 38.5829 64.7588 39.5301C64.7588 39.9201 64.6461 40.1628 64.1992 40.1678C63.6742 40.1678 63.1492 40.2371 62.6242 40.2322C62.0992 40.2272 61.9742 40.1083 61.9073 39.5821C61.8742 39.253 61.8626 38.9221 61.8726 38.5916C61.8726 37.7063 61.8862 36.821 61.8962 35.9357C61.9073 34.8325 61.8664 33.7243 61.9494 32.626C62.0274 31.5798 62.649 30.8579 63.6147 30.4567C64.8653 29.9379 66.1642 29.9095 67.4692 30.1794C67.619 30.2103 67.8233 30.484 67.8233 30.6449C67.8154 31.2457 67.7691 31.8454 67.6846 32.4403C67.6747 32.5257 67.463 32.6409 67.3404 32.6483C66.7213 32.6805 66.1022 32.6694 65.4918 32.6954C65.0176 32.7164 64.7923 32.8959 64.7762 33.3739C64.744 34.3471 64.77 35.3228 64.7762 36.2972V36.6823H64.7588Z" fill="black"/>
</svg>
