<svg width="111" height="30" viewBox="0 0 111 30" fill="none" xmlns="http://www.w3.org/2000/svg">
<path fill-rule="evenodd" clip-rule="evenodd" d="M0 12.3882H7.02405V10.7168C7.02405 8.68003 8.68132 7.02405 10.7168 7.02405H20.4462V0H10.7168C4.8079 0 0 4.80661 0 10.7155V12.3882ZM0 29.9999H7.02405V22.4648C7.02405 20.428 8.68132 18.772 10.7168 18.772H20.4462V11.748H10.7168C4.8079 11.748 0 16.5559 0 22.4648V29.9999ZM31.4876 5.24932H32.8184V13.3343H34.8099V5.24932H36.7357V3.69789H34.7815V2.78923C34.7815 1.93607 35.1855 1.50497 36.0477 1.50497C36.3149 1.50497 36.5808 1.52433 36.7731 1.56047V0.0916405C36.5162 0.0464656 36.0671 0 35.6631 0C33.6999 0 32.8184 0.881556 32.8184 2.75309V3.69789H31.4876V5.24932ZM39.0821 0C38.4484 0 37.9347 0.504668 37.9347 1.13841C37.9347 1.76182 38.4484 2.26649 39.0821 2.26778C39.7249 2.26778 40.2386 1.76182 40.2386 1.13841C40.2386 0.504668 39.7249 0 39.0821 0ZM40.0734 3.67982H38.0909V13.3343H40.0734V3.67982ZM41.1054 8.50704C41.1054 5.46096 42.7201 3.5236 45.1428 3.5236C46.529 3.5236 47.63 4.22059 48.1708 5.28542H48.2069V0.0916019H50.1985V13.333H48.2727V11.6912H48.2366C47.6674 12.7922 46.5664 13.4995 45.1621 13.4995C42.7201 13.4995 41.1054 11.5531 41.1054 8.50704ZM43.1331 8.50704C43.1331 10.5438 44.1154 11.8203 45.6849 11.8203C47.2079 11.8203 48.2263 10.527 48.2263 8.50704C48.2263 6.50644 47.2079 5.19378 45.6849 5.19378C44.1154 5.19378 43.1331 6.47933 43.1331 8.50704ZM55.811 3.50563C53.0579 3.50563 51.2316 5.40556 51.2316 8.50713C51.2316 11.6177 53.0489 13.5177 55.811 13.5177C58.5732 13.5177 60.3905 11.6177 60.3905 8.50713C60.3905 5.40556 58.5641 3.50563 55.811 3.50563ZM55.811 5.13967C57.3625 5.13967 58.3718 6.36843 58.3718 8.50713C58.3718 10.6536 57.3715 11.8836 55.811 11.8836C54.2596 11.8836 53.2503 10.6549 53.2503 8.50713C53.2503 6.36972 54.2596 5.13967 55.811 5.13967ZM68.2111 3.50563C70.3588 3.50563 71.8638 4.70728 71.9271 6.42393H70.0646C69.9729 5.5527 69.2656 5.0106 68.1556 5.0106C67.0817 5.0106 66.3667 5.53334 66.3667 6.29486C66.3667 6.89116 66.8442 7.29516 67.8445 7.54297L69.4682 7.91986C71.4133 8.38839 72.1478 9.12151 72.1478 10.5439C72.1478 12.3057 70.5047 13.5177 68.1375 13.5177C65.853 13.5177 64.339 12.3341 64.1828 10.5632H66.146C66.3021 11.49 67.0172 12.0037 68.2292 12.0037C69.4218 12.0037 70.1562 11.508 70.1562 10.7284C70.1562 10.1141 69.7896 9.77461 68.7803 9.51776L67.0546 9.0957C65.3109 8.67364 64.4306 7.76498 64.4306 6.41618C64.4293 4.68921 65.9536 3.50563 68.2111 3.50563ZM75.6954 3.67974V1.39518H73.7039V3.67974H72.2996V5.24925H73.7039V10.7903C73.7039 12.6528 74.4667 13.3962 76.4208 13.3962C76.8609 13.3962 77.3011 13.3601 77.5218 13.3046V11.7351C77.3927 11.7635 77.0713 11.7815 76.87 11.7815C76.062 11.7815 75.6954 11.4059 75.6954 10.5709V5.24925H77.5308V3.67974H75.6954ZM86.8658 13.3345H84.9671V11.7004H84.9207C84.3889 12.8569 83.4067 13.5087 81.9288 13.5087C79.8275 13.5087 78.542 12.1418 78.542 9.92955V3.67993H80.5245V9.54363C80.5245 11.0125 81.2215 11.8011 82.5897 11.8011C84.0211 11.8011 84.8833 10.8098 84.8833 9.30485V3.67993H86.8658V13.3345ZM91.8647 3.5236C89.442 3.5236 87.8273 5.46096 87.8273 8.50704C87.8273 11.5531 89.442 13.4995 91.8827 13.4995C93.287 13.4995 94.388 12.7922 94.9572 11.6912H94.9933V13.333H96.9204V0.0916019H94.9288V5.28542H94.8927C94.3519 4.22059 93.2509 3.5236 91.8647 3.5236ZM92.4068 11.8203C90.8373 11.8203 89.855 10.5438 89.855 8.50704C89.855 6.47933 90.8373 5.19378 92.4068 5.19378C93.9298 5.19378 94.9482 6.50644 94.9482 8.50704C94.9482 10.527 93.9298 11.8203 92.4068 11.8203ZM98.2938 1.13841C98.2938 0.504668 98.8075 0 99.4412 0C100.084 0 100.598 0.504668 100.598 1.13841C100.598 1.76182 100.084 2.26778 99.4412 2.26778C98.8075 2.26649 98.2938 1.76182 98.2938 1.13841ZM100.432 3.67982V13.3343H98.45V3.67982H100.432ZM106.044 3.50563C103.291 3.50563 101.465 5.40556 101.465 8.50713C101.465 11.6177 103.282 13.5177 106.044 13.5177C108.806 13.5177 110.623 11.6177 110.623 8.50713C110.623 5.40556 108.797 3.50563 106.044 3.50563ZM106.043 5.13967C107.594 5.13967 108.603 6.36843 108.603 8.50713C108.603 10.6536 107.603 11.8836 106.043 11.8836C104.491 11.8836 103.482 10.6549 103.482 8.50713C103.482 6.36972 104.491 5.13967 106.043 5.13967ZM68.9253 19.606C68.9253 19.433 69.066 19.2949 69.2376 19.2949C69.4132 19.2949 69.5526 19.433 69.5526 19.606C69.5526 19.7764 69.4119 19.9145 69.2376 19.9145C69.066 19.9145 68.9253 19.7764 68.9253 19.606ZM68.9679 20.2991H69.5087V22.9321H68.9679V20.2991ZM33.6827 22.9322H34.2132L34.994 20.2088H35.0186L35.7994 22.9322H36.3273L37.3031 19.3195H36.7197L36.0511 22.1487H36.0305L35.2651 19.3195H34.7449L33.9808 22.1487H33.9615L33.2929 19.3195H32.7095L33.6827 22.9322ZM38.4669 22.9824C39.0709 22.9824 39.5265 22.639 39.6014 22.1589V22.1576H39.0864C39.0141 22.3886 38.787 22.5435 38.4785 22.5435C38.0448 22.5435 37.7699 22.2402 37.7699 21.782V21.7497H39.6298V21.5652C39.6298 20.7675 39.1742 20.2512 38.4436 20.2512C37.7002 20.2512 37.2252 20.8024 37.2252 21.6284C37.2252 22.4596 37.6937 22.9824 38.4669 22.9824ZM39.0903 21.3729H37.7738C37.8009 20.9753 38.068 20.6875 38.4449 20.6875C38.8218 20.6875 39.0774 20.9702 39.0903 21.3729ZM40.8803 22.1848C40.8803 21.724 41.2326 21.4413 41.8586 21.4065L42.5788 21.3639V21.1612C42.5788 20.8682 42.3814 20.6927 42.0509 20.6927C41.7386 20.6927 41.5424 20.8424 41.4947 21.0786H40.9835C41.0132 20.6037 41.4185 20.2526 42.0703 20.2526C42.7092 20.2526 43.1171 20.5907 43.1171 21.1186V22.9334H42.5995V22.4997H42.5866C42.4343 22.7927 42.1013 22.9773 41.7554 22.9773C41.2404 22.9773 40.8803 22.6572 40.8803 22.1848ZM42.5801 21.946V21.7382L41.9322 21.7782C41.6095 21.8001 41.4262 21.9434 41.4262 22.1693C41.4262 22.399 41.616 22.55 41.9064 22.55C42.2846 22.55 42.5801 22.2893 42.5801 21.946ZM44.1082 20.299H43.5932V22.9333H44.134V21.3561C44.134 20.9831 44.3482 20.7507 44.6967 20.7507C44.8013 20.7507 44.8968 20.7624 44.9394 20.7804V20.2771C44.8994 20.2693 44.8322 20.2564 44.7548 20.2564C44.4437 20.2564 44.2088 20.4384 44.1211 20.7469H44.1082V20.299ZM47.3671 22.1589C47.2922 22.639 46.8366 22.9824 46.2325 22.9824C45.4594 22.9824 44.9909 22.4596 44.9909 21.6284C44.9909 20.8024 45.4659 20.2512 46.2093 20.2512C46.9398 20.2512 47.3955 20.7675 47.3955 21.5652V21.7497H45.5356V21.782C45.5356 22.2402 45.8105 22.5435 46.2442 22.5435C46.5526 22.5435 46.7798 22.3886 46.8521 22.1576H47.3671V22.1589ZM45.5394 21.3729H46.856C46.843 20.9702 46.5875 20.6875 46.2106 20.6875C45.8337 20.6875 45.5665 20.9753 45.5394 21.3729ZM49.8768 22.9824C50.4809 22.9824 50.9365 22.639 51.0113 22.1589V22.1576H50.4964C50.4241 22.3886 50.1969 22.5435 49.8884 22.5435C49.4547 22.5435 49.1798 22.2402 49.1798 21.782V21.7497H51.0397V21.5652C51.0397 20.7675 50.5841 20.2512 49.8536 20.2512C49.1101 20.2512 48.6351 20.8024 48.6351 21.6284C48.6351 22.4596 49.1037 22.9824 49.8768 22.9824ZM50.5002 21.3729H49.1837C49.2108 20.9753 49.478 20.6875 49.8549 20.6875C50.2318 20.6875 50.4873 20.9702 50.5002 21.3729ZM51.4074 20.2991H51.9224V20.7392H51.9353C52.0786 20.4385 52.3587 20.2539 52.764 20.2539C53.3448 20.2539 53.6778 20.6244 53.6778 21.2271V22.9322H53.1344V21.333C53.1344 20.938 52.9486 20.7199 52.5742 20.7199C52.1935 20.7199 51.9483 20.9896 51.9483 21.3988V22.9334H51.4074V20.2991ZM54.6689 23.1373H54.1255C54.1927 23.5942 54.6535 23.9233 55.2756 23.9233C56.0268 23.9233 56.5121 23.5129 56.5121 22.8843V20.299H55.9868V20.7495H55.9764C55.8164 20.4448 55.5105 20.2564 55.1375 20.2564C54.4611 20.2564 54.0313 20.7766 54.0313 21.6052C54.0313 22.4261 54.4637 22.9424 55.1246 22.9424C55.5002 22.9424 55.8112 22.7539 55.9584 22.4687H55.9687V22.9024C55.9687 23.2625 55.7183 23.5025 55.2949 23.5025C54.9865 23.5025 54.7464 23.358 54.6689 23.1373ZM55.2691 20.7133C55.6925 20.7133 55.97 21.0683 55.97 21.6091C55.97 22.1512 55.6925 22.4945 55.2691 22.4958C54.8535 22.4958 54.5838 22.1602 54.5838 21.6091C54.5838 21.0618 54.8535 20.7133 55.2691 20.7133ZM56.887 22.1848C56.887 21.724 57.2393 21.4413 57.8653 21.4065L58.5855 21.3639V21.1612C58.5855 20.8682 58.3881 20.6927 58.0576 20.6927C57.7453 20.6927 57.5491 20.8424 57.5013 21.0786H56.9902C57.0199 20.6037 57.4252 20.2526 58.077 20.2526C58.7159 20.2526 59.1238 20.5907 59.1238 21.1186V22.9334H58.6062V22.4997H58.5933C58.441 22.7927 58.108 22.9773 57.7621 22.9773C57.2484 22.9773 56.887 22.6572 56.887 22.1848ZM58.5868 21.946V21.7382L57.9389 21.7782C57.6162 21.8001 57.4329 21.9434 57.4329 22.1693C57.4329 22.399 57.6227 22.55 57.9131 22.55C58.2913 22.55 58.5868 22.2893 58.5868 21.946ZM60.1173 23.1373H59.574C59.6424 23.5942 60.1031 23.9233 60.724 23.9233C61.4752 23.9233 61.9605 23.5129 61.9605 22.8843V20.299H61.4352V20.7495H61.4248C61.2648 20.4448 60.9589 20.2564 60.5859 20.2564C59.9095 20.2564 59.4797 20.7766 59.4797 21.6052C59.4797 22.4261 59.9121 22.9424 60.573 22.9424C60.9486 22.9424 61.2596 22.7539 61.4068 22.4687H61.4171V22.9024C61.4171 23.2625 61.1667 23.5025 60.7433 23.5025C60.4349 23.5025 60.1948 23.358 60.1173 23.1373ZM60.7188 20.7133C61.1422 20.7133 61.4197 21.0683 61.4197 21.6091C61.4197 22.1512 61.1422 22.4945 60.7188 22.4958C60.3032 22.4958 60.0334 22.1602 60.0334 21.6091C60.0334 21.0618 60.3032 20.7133 60.7188 20.7133ZM64.7008 22.1589C64.6259 22.639 64.1703 22.9824 63.5662 22.9824C62.7931 22.9824 62.3246 22.4596 62.3246 21.6284C62.3246 20.8024 62.7995 20.2512 63.543 20.2512C64.2735 20.2512 64.7292 20.7675 64.7292 21.5652V21.7497H62.8692V21.782C62.8692 22.2402 63.1442 22.5435 63.5778 22.5435C63.8863 22.5435 64.1135 22.3886 64.1858 22.1576H64.7008V22.1589ZM62.8731 21.3729H64.1896C64.1767 20.9702 63.9212 20.6875 63.5443 20.6875C63.1674 20.6875 62.9002 20.9753 62.8731 21.3729ZM66.0813 20.2565C65.4205 20.2565 64.9803 20.7844 64.9803 21.6156C64.9803 22.4468 65.4218 22.9773 66.0865 22.9773C66.4698 22.9773 66.7706 22.785 66.9254 22.4843H66.9358V22.9322H67.4611V19.3195H66.9177V20.7367H66.9074C66.7602 20.4462 66.4595 20.2565 66.0813 20.2565ZM66.2298 22.5191C65.8025 22.5191 65.534 22.1719 65.534 21.6156C65.534 21.0632 65.8012 20.7121 66.2298 20.7121C66.6454 20.7121 66.9229 21.0697 66.9229 21.6156C66.9229 22.1668 66.6454 22.5191 66.2298 22.5191ZM70.5273 20.2991H70.0123V22.9334H70.5531V21.3988C70.5531 20.9896 70.7983 20.7199 71.1791 20.7199C71.5534 20.7199 71.7393 20.938 71.7393 21.333V22.9322H72.2827V21.2271C72.2827 20.6244 71.9497 20.2539 71.3688 20.2539C70.9636 20.2539 70.6835 20.4385 70.5402 20.7392H70.5273V20.2991ZM74.4398 19.6757V20.2991H74.9406V20.7277H74.4398V22.1797C74.4398 22.4082 74.5404 22.5101 74.7599 22.5101C74.8154 22.5101 74.9031 22.505 74.938 22.4972V22.9257C74.8773 22.9412 74.7573 22.9503 74.6373 22.9503C74.1042 22.9503 73.8964 22.7476 73.8964 22.2391V20.7277H73.513V20.2991H73.8964V19.6757H74.4398ZM75.887 19.3206H75.3527V22.9333H75.8935V21.4115C75.8935 20.9959 76.1387 20.721 76.5388 20.721C76.9196 20.721 77.1145 20.9533 77.1145 21.3418V22.9333H77.6579V21.236C77.6579 20.641 77.312 20.2551 76.7337 20.2551C76.3336 20.2551 76.0445 20.4319 75.8999 20.7404H75.887V19.3206ZM80.3852 22.1589C80.3103 22.639 79.8547 22.9824 79.2506 22.9824C78.4775 22.9824 78.009 22.4596 78.009 21.6284C78.009 20.8024 78.4839 20.2512 79.2274 20.2512C79.9579 20.2512 80.4136 20.7675 80.4136 21.5652V21.7497H78.5536V21.782C78.5536 22.2402 78.8286 22.5435 79.2622 22.5435C79.5707 22.5435 79.7979 22.3886 79.8702 22.1576H80.3852V22.1589ZM78.5575 21.3729H79.874C79.8611 20.9702 79.6056 20.6875 79.2287 20.6875C78.8518 20.6875 78.5846 20.9753 78.5575 21.3729ZM82.6424 21.4065C82.0164 21.4413 81.664 21.724 81.664 22.1848C81.664 22.6572 82.0254 22.9773 82.5391 22.9773C82.885 22.9773 83.218 22.7927 83.3704 22.4997H83.3833V22.9334H83.9008V21.1186C83.9008 20.5907 83.493 20.2526 82.8541 20.2526C82.2023 20.2526 81.797 20.6037 81.7673 21.0786H82.2784C82.3262 20.8424 82.5224 20.6927 82.8347 20.6927C83.1651 20.6927 83.3626 20.8682 83.3626 21.1612V21.3639L82.6424 21.4065ZM83.3639 21.7382V21.946C83.3639 22.2893 83.0683 22.55 82.6901 22.55C82.3997 22.55 82.21 22.399 82.21 22.1693C82.21 21.9434 82.3933 21.8001 82.716 21.7782L83.3639 21.7382ZM84.3769 20.2991H84.8919V20.7392H84.9048C85.0481 20.4385 85.3282 20.2539 85.7335 20.2539C86.3143 20.2539 86.6473 20.6244 86.6473 21.2271V22.9322H86.1039V21.333C86.1039 20.938 85.918 20.7199 85.5437 20.7199C85.163 20.7199 84.9177 20.9896 84.9177 21.3988V22.9334H84.3769V20.2991ZM87.9882 21.4065C87.3622 21.4413 87.0098 21.724 87.0098 22.1848C87.0098 22.6572 87.3712 22.9773 87.8849 22.9773C88.2308 22.9773 88.5638 22.7927 88.7161 22.4997H88.729V22.9334H89.2466V21.1186C89.2466 20.5907 88.8387 20.2526 88.1998 20.2526C87.548 20.2526 87.1427 20.6037 87.1131 21.0786H87.6242C87.6719 20.8424 87.8681 20.6927 88.1805 20.6927C88.5109 20.6927 88.7084 20.8682 88.7084 21.1612V21.3639L87.9882 21.4065ZM88.7097 21.7382V21.946C88.7097 22.2893 88.4141 22.55 88.0359 22.55C87.7455 22.55 87.5558 22.399 87.5558 22.1693C87.5558 21.9434 87.7391 21.8001 88.0617 21.7782L88.7097 21.7382ZM90.4213 19.6757V20.2991H90.9221V20.7277H90.4213V22.1797C90.4213 22.4082 90.5219 22.5101 90.7413 22.5101C90.7969 22.5101 90.8846 22.505 90.9195 22.4972V22.9257C90.8588 22.9412 90.7388 22.9503 90.6187 22.9503C90.0857 22.9503 89.8779 22.7476 89.8779 22.2391V20.7277H89.4945V20.2991H89.8779V19.6757H90.4213ZM92.3824 20.2512C91.6312 20.2512 91.133 20.7688 91.133 21.6155C91.133 22.4648 91.6286 22.9824 92.3824 22.9824C93.1362 22.9824 93.6318 22.4635 93.6318 21.6155C93.6318 20.7688 93.1336 20.2512 92.3824 20.2512ZM92.3824 20.6965C92.8058 20.6965 93.0807 21.0321 93.0807 21.6155C93.0807 22.2015 92.8071 22.5371 92.3824 22.5371C91.9591 22.5371 91.6841 22.2015 91.6841 21.6155C91.6841 21.0321 91.9591 20.6965 92.3824 20.6965ZM93.9995 20.2991H94.5157V20.7418H94.5286C94.6461 20.4488 94.921 20.2539 95.2773 20.2539C95.6425 20.2539 95.9084 20.4424 96.013 20.7702H96.0259C96.1614 20.4501 96.4712 20.2539 96.8468 20.2539C97.3669 20.2539 97.7077 20.5998 97.7077 21.1226V22.9322H97.1643V21.2529C97.1643 20.9122 96.981 20.7173 96.6609 20.7173C96.3408 20.7173 96.1175 20.9548 96.1175 21.2878V22.9322H95.587V21.2129C95.587 20.9096 95.3947 20.7173 95.0888 20.7173C94.7687 20.7173 94.5403 20.9677 94.5403 21.3059V22.9334H93.9995V20.2991ZM98.2146 23.4638V23.9014C98.2547 23.9091 98.3928 23.9143 98.4366 23.9156C98.9852 23.9156 99.242 23.7104 99.4679 23.0714L100.457 20.3003H99.8861L99.2175 22.4429H99.2098L98.5412 20.3003H97.9552L98.9065 22.9359C98.9065 22.9365 98.9038 22.9457 98.8997 22.9595C98.8966 22.9696 98.8929 22.9822 98.8888 22.9956L98.8887 22.9961C98.8751 23.0411 98.8587 23.0955 98.8587 23.0986C98.7761 23.3696 98.6432 23.4742 98.3902 23.4742C98.345 23.4742 98.2547 23.4741 98.2146 23.4638ZM32.749 27.6924C32.749 26.847 33.2472 26.3281 33.9984 26.3281C34.7496 26.3281 35.2478 26.8457 35.2478 27.6924C35.2478 28.5404 34.7522 29.0593 33.9984 29.0593C33.2447 29.0593 32.749 28.5417 32.749 27.6924ZM34.6967 27.6924C34.6967 27.109 34.4218 26.7734 33.9984 26.7734C33.5751 26.7734 33.3002 27.109 33.3002 27.6924C33.3002 28.2784 33.5751 28.614 33.9984 28.614C34.4244 28.614 34.6967 28.2784 34.6967 27.6924ZM35.4085 26.8042H35.7712V29.0087H36.3145V26.8029H36.8399V26.3795H36.3068V26.1317C36.3068 25.8981 36.4178 25.7806 36.6527 25.7806C36.725 25.7806 36.7973 25.7858 36.8502 25.7961V25.396C36.7792 25.3844 36.6566 25.3715 36.5469 25.3715C36.0112 25.3715 35.7712 25.6116 35.7712 26.1227V26.3808H35.4085V26.8042ZM40.4606 29.0088H39.9431V28.5635H39.9302C39.7856 28.8784 39.5171 29.0565 39.1144 29.0565C38.5414 29.0565 38.1903 28.6835 38.1903 28.0808V26.3757H38.7311V27.9749C38.7311 28.375 38.9208 28.5906 39.2938 28.5906C39.6849 28.5906 39.9198 28.3208 39.9198 27.9104V26.3757H40.4606V29.0088ZM42.9392 27.1245C42.9224 26.656 42.512 26.3281 41.926 26.3281C41.3103 26.3281 40.8947 26.6508 40.8921 27.1193C40.8921 27.4872 41.1335 27.735 41.6085 27.8499L42.0796 27.9647C42.3545 28.0344 42.4552 28.1274 42.4552 28.2952C42.4552 28.5081 42.2551 28.6437 41.9299 28.6437C41.5994 28.6437 41.4045 28.5043 41.3619 28.2513H40.8263C40.8689 28.7353 41.2819 29.058 41.9053 29.058C42.5507 29.058 42.9986 28.7276 42.9986 28.2474C42.9986 27.8589 42.7985 27.6588 42.268 27.5311L41.8253 27.4291C41.553 27.3607 41.4226 27.251 41.4226 27.0884C41.4226 26.8818 41.6175 26.7386 41.9105 26.7386C42.2125 26.7386 42.4061 26.887 42.4306 27.1245H42.9392ZM45.6278 28.2358C45.5529 28.7159 45.0973 29.0593 44.4933 29.0593C43.7201 29.0593 43.2516 28.5365 43.2516 27.7053C43.2516 26.8793 43.7266 26.3281 44.47 26.3281C45.2006 26.3281 45.6562 26.8444 45.6562 27.6421V27.8266H43.7963V27.8589C43.7963 28.3171 44.0712 28.6204 44.5049 28.6204C44.8134 28.6204 45.0405 28.4655 45.1128 28.2345H45.6278V28.2358ZM43.8001 27.4498H45.1167C45.1038 27.0471 44.8482 26.7644 44.4713 26.7644C44.0944 26.7644 43.8272 27.0522 43.8001 27.4498ZM46.5407 26.3758H46.0257V29.0101H46.5665V27.4329C46.5665 27.0599 46.7807 26.8275 47.1292 26.8275C47.2338 26.8275 47.3293 26.8391 47.3719 26.8572V26.3538C47.3319 26.3461 47.2648 26.3332 47.1873 26.3332C46.8763 26.3332 46.6413 26.5152 46.5536 26.8237H46.5407V26.3758ZM48.6189 25.6825C48.6189 25.5096 48.7596 25.3715 48.9313 25.3715C49.1068 25.3715 49.2462 25.5096 49.2462 25.6825C49.2462 25.8529 49.1055 25.991 48.9313 25.991C48.7583 25.991 48.6189 25.8529 48.6189 25.6825ZM48.6615 26.3757H49.2023V29.0087H48.6615V26.3757ZM50.2209 26.3757H49.7059V29.01H50.2468V27.4753C50.2468 27.0662 50.492 26.7964 50.8727 26.7964C51.2471 26.7964 51.4329 27.0146 51.4329 27.4095V29.0087H51.9763V27.3037C51.9763 26.7009 51.6433 26.3305 51.0625 26.3305C50.6572 26.3305 50.3771 26.5151 50.2338 26.8158H50.2209V26.3757ZM53.1449 25.7523V26.3757H53.6457V26.8042H53.1449V28.2563C53.1449 28.4847 53.2456 28.5867 53.465 28.5867C53.5205 28.5867 53.6083 28.5815 53.6431 28.5738V29.0023C53.5825 29.0178 53.4624 29.0268 53.3424 29.0268C52.8093 29.0268 52.6015 28.8242 52.6015 28.3156V26.8042H52.2182V26.3757H52.6015V25.7523H53.1449ZM55.0984 29.0593C55.7024 29.0593 56.158 28.7159 56.2329 28.2358V28.2345H55.7192C55.6469 28.4655 55.4197 28.6204 55.1113 28.6204C54.6776 28.6204 54.4027 28.3171 54.4027 27.8589V27.8266H56.2613V27.6421C56.2613 26.8444 55.8057 26.3281 55.0751 26.3281C54.3317 26.3281 53.8567 26.8793 53.8567 27.7053C53.8567 28.5365 54.3252 29.0593 55.0984 29.0593ZM55.7218 27.4498H54.4052C54.4323 27.0522 54.6995 26.7644 55.0764 26.7644C55.4533 26.7644 55.7089 27.0471 55.7218 27.4498ZM56.6308 26.3758H57.1458V26.8237H57.1587C57.2464 26.5152 57.4814 26.3332 57.7924 26.3332C57.8699 26.3332 57.937 26.3461 57.977 26.3538V26.8572C57.9344 26.8391 57.8389 26.8275 57.7343 26.8275C57.3858 26.8275 57.1716 27.0599 57.1716 27.4329V29.0101H56.6308V26.3758ZM58.0555 26.8042H58.4182V29.0087H58.9616V26.8029H59.4869V26.3795H58.9538V26.1317C58.9538 25.8981 59.0648 25.7806 59.2998 25.7806C59.372 25.7806 59.4443 25.7858 59.4972 25.7961V25.396C59.4262 25.3844 59.3036 25.3715 59.1939 25.3715C58.6583 25.3715 58.4182 25.6116 58.4182 26.1227V26.3808H58.0555V26.8042ZM59.6112 28.2616C59.6112 27.8008 59.9635 27.5181 60.5895 27.4833L61.3097 27.4407V27.238C61.3097 26.945 61.1123 26.7695 60.7818 26.7695C60.4695 26.7695 60.2733 26.9192 60.2255 27.1554H59.7144C59.7441 26.6804 60.1494 26.3294 60.8012 26.3294C61.4401 26.3294 61.848 26.6675 61.848 27.1954V29.0102H61.3304V28.5765H61.3175C61.1652 28.8695 60.8322 29.0541 60.4863 29.0541C59.9713 29.0541 59.6112 28.734 59.6112 28.2616ZM61.311 28.0228V27.815L60.6631 27.855C60.3404 27.8769 60.1571 28.0202 60.1571 28.2461C60.1571 28.4758 60.3469 28.6268 60.6373 28.6268C61.0155 28.6268 61.311 28.3661 61.311 28.0228ZM63.4482 26.7786C63.8006 26.7786 64.011 27.0019 64.0665 27.282H64.5815C64.535 26.7631 64.122 26.3281 63.4431 26.3281C62.6945 26.3281 62.204 26.856 62.204 27.6924C62.204 28.543 62.6945 29.0593 63.4482 29.0593C64.0807 29.0593 64.5285 28.6785 64.5866 28.1183H64.0665C64.0045 28.423 63.7864 28.6062 63.4534 28.6062C63.0326 28.6062 62.7551 28.2706 62.7551 27.6924C62.7551 27.1271 63.03 26.7786 63.4482 26.7786ZM67.1765 28.2358C67.1016 28.7159 66.646 29.0593 66.042 29.0593C65.2688 29.0593 64.8003 28.5365 64.8003 27.7053C64.8003 26.8793 65.2753 26.3281 66.0187 26.3281C66.7493 26.3281 67.2049 26.8444 67.2049 27.6421V27.8266H65.345V27.8589C65.345 28.3171 65.6199 28.6204 66.0536 28.6204C66.3621 28.6204 66.5892 28.4655 66.6615 28.2345H67.1765V28.2358ZM65.3488 27.4498H66.6654C66.6525 27.0471 66.3969 26.7644 66.02 26.7644C65.6431 26.7644 65.3772 27.0522 65.3488 27.4498ZM69.4355 27.4833C68.8095 27.5181 68.4572 27.8008 68.4572 28.2616C68.4572 28.734 68.8173 29.0541 69.3323 29.0541C69.6782 29.0541 70.0112 28.8695 70.1635 28.5765H70.1764V29.0102H70.694V27.1954C70.694 26.6675 70.2861 26.3294 69.6472 26.3294C68.9954 26.3294 68.5901 26.6804 68.5604 27.1554H69.0715C69.1193 26.9192 69.3155 26.7695 69.6278 26.7695C69.9583 26.7695 70.1557 26.945 70.1557 27.238V27.4407L69.4355 27.4833ZM70.1557 27.815V28.0228C70.1557 28.3661 69.8615 28.6268 69.482 28.6268C69.1916 28.6268 69.0018 28.4758 69.0018 28.2461C69.0018 28.0202 69.1851 27.8769 69.5078 27.855L70.1557 27.815ZM71.1664 26.3757H71.6814V26.8158H71.6943C71.8376 26.5151 72.1177 26.3305 72.523 26.3305C73.1038 26.3305 73.4368 26.7009 73.4368 27.3037V29.0087H72.8934V27.4095C72.8934 27.0146 72.7076 26.7964 72.3332 26.7964C71.9525 26.7964 71.7073 27.0662 71.7073 27.4753V29.01H71.1664V26.3757ZM74.8895 26.3331C74.2287 26.3331 73.7885 26.861 73.7885 27.6922C73.7885 28.5234 74.2287 29.0539 74.8947 29.0539C75.278 29.0539 75.5787 28.8616 75.7336 28.5608H75.7439V29.0087H76.2693V25.396H75.7259V26.8132H75.7156C75.5684 26.5228 75.2677 26.3331 74.8895 26.3331ZM75.0379 28.5957C74.6107 28.5957 74.3422 28.2485 74.3422 27.6922C74.3422 27.1398 74.6094 26.7887 75.0379 26.7887C75.4535 26.7887 75.731 27.1462 75.731 27.6922C75.731 28.2433 75.4535 28.5957 75.0379 28.5957ZM77.6416 27.6922C77.6416 26.861 78.0818 26.3331 78.7426 26.3331C79.1208 26.3331 79.4215 26.5228 79.5687 26.8132H79.579V25.396H80.1224V29.0087H79.5971V28.5608H79.5868C79.4319 28.8616 79.1311 29.0539 78.7478 29.0539C78.0831 29.0539 77.6416 28.5234 77.6416 27.6922ZM78.1954 27.6922C78.1954 28.2485 78.4638 28.5957 78.8911 28.5957C79.3067 28.5957 79.5842 28.2433 79.5842 27.6922C79.5842 27.1462 79.3067 26.7887 78.8911 26.7887C78.4625 26.7887 78.1954 27.1398 78.1954 27.6922ZM80.9123 25.3715C80.7406 25.3715 80.5999 25.5096 80.5999 25.6825C80.5999 25.8529 80.7393 25.991 80.9123 25.991C81.0865 25.991 81.2272 25.8529 81.2272 25.6825C81.2272 25.5096 81.0878 25.3715 80.9123 25.3715ZM81.1833 26.3757H80.6425V29.0087H81.1833V26.3757ZM81.6628 29.2141H82.2062C82.2837 29.4348 82.5237 29.5793 82.8322 29.5793C83.2556 29.5793 83.506 29.3393 83.506 28.9791V28.5455H83.4956C83.3485 28.8307 83.0374 29.0192 82.6618 29.0192C82.001 29.0192 81.5686 28.5029 81.5686 27.682C81.5686 26.8533 81.9984 26.3332 82.6747 26.3332C83.0478 26.3332 83.3537 26.5216 83.5137 26.8262H83.524V26.3758H84.0494V28.9611C84.0494 29.5897 83.564 30.0001 82.8129 30.0001C82.192 30.0001 81.7312 29.6697 81.6628 29.2141ZM83.5085 27.6846C83.5085 27.1438 83.231 26.7888 82.8077 26.7888C82.3921 26.7888 82.1223 27.1373 82.1223 27.6846C82.1223 28.2357 82.3921 28.5713 82.8077 28.5713C83.2298 28.5713 83.5085 28.228 83.5085 27.6846ZM84.8176 25.3715C84.646 25.3715 84.5053 25.5096 84.5053 25.6825C84.5053 25.8529 84.6447 25.991 84.8176 25.991C84.9919 25.991 85.1326 25.8529 85.1326 25.6825C85.1326 25.5096 84.9932 25.3715 84.8176 25.3715ZM85.0887 26.3757H84.5479V29.0087H85.0887V26.3757ZM86.2926 25.7523V26.3757H86.7934V26.8042H86.2926V28.2563C86.2926 28.4847 86.3933 28.5867 86.6127 28.5867C86.6682 28.5867 86.756 28.5815 86.7909 28.5738V29.0023C86.7302 29.0178 86.6102 29.0268 86.4901 29.0268C85.9571 29.0268 85.7493 28.8242 85.7493 28.3156V26.8042H85.3659V26.3757H85.7493V25.7523H86.2926ZM88.0188 27.4833C87.3928 27.5181 87.0404 27.8008 87.0404 28.2616C87.0404 28.734 87.4005 29.0541 87.9155 29.0541C88.2614 29.0541 88.5944 28.8695 88.7467 28.5765H88.7596V29.0102H89.2772V27.1954C89.2772 26.6675 88.8694 26.3294 88.2305 26.3294C87.5786 26.3294 87.1734 26.6804 87.1437 27.1554H87.6548C87.7025 26.9192 87.8987 26.7695 88.2111 26.7695C88.5415 26.7695 88.739 26.945 88.739 27.238V27.4407L88.0188 27.4833ZM88.7403 27.815V28.0228C88.7403 28.3661 88.4447 28.6268 88.0665 28.6268C87.7761 28.6268 87.5864 28.4758 87.5864 28.2461C87.5864 28.0202 87.7697 27.8769 88.0923 27.855L88.7403 27.815ZM89.7682 25.3974H90.309V29.0101H89.7682V25.3974ZM92.3479 28.5608H92.3583C92.5209 28.8667 92.8177 29.0539 93.205 29.0526C93.8736 29.0526 94.3034 28.5273 94.3034 27.6909C94.3034 26.8571 93.871 26.3318 93.2076 26.3318C92.8345 26.3318 92.5338 26.5163 92.3763 26.8222H92.3634V25.396H91.8226V29.0087H92.3479V28.5608ZM93.0591 28.5957C92.6487 28.5957 92.3608 28.2407 92.3608 27.6922C92.3608 27.1488 92.6487 26.7887 93.0591 26.7887C93.4838 26.7887 93.7471 27.1385 93.7471 27.6922C93.7471 28.2498 93.485 28.5957 93.0591 28.5957ZM94.6741 26.3758H95.1891V26.8237H95.202C95.2898 26.5152 95.5247 26.3332 95.8358 26.3332C95.9132 26.3332 95.9803 26.3461 96.0204 26.3538V26.8572C95.9778 26.8391 95.8822 26.8275 95.7777 26.8275C95.4292 26.8275 95.215 27.0599 95.215 27.4329V29.0101H94.6741V26.3758ZM97.1222 27.4833C96.4962 27.5181 96.1439 27.8008 96.1439 28.2616C96.1439 28.734 96.5053 29.0541 97.019 29.0541C97.3649 29.0541 97.6979 28.8695 97.8502 28.5765H97.8631V29.0102H98.3807V27.1954C98.3807 26.6675 97.9728 26.3294 97.3339 26.3294C96.6821 26.3294 96.2768 26.6804 96.2471 27.1554H96.7583C96.806 26.9192 97.0022 26.7695 97.3146 26.7695C97.645 26.7695 97.8425 26.945 97.8425 27.238V27.4407L97.1222 27.4833ZM97.8437 27.815V28.0228C97.8437 28.3661 97.5482 28.6268 97.17 28.6268C96.8796 28.6268 96.6898 28.4758 96.6898 28.2461C96.6898 28.0202 96.8731 27.8769 97.1958 27.855L97.8437 27.815ZM98.855 26.3757H99.37V26.8158H99.3829C99.5261 26.5151 99.8062 26.3305 100.212 26.3305C100.792 26.3305 101.125 26.7009 101.125 27.3037V29.0087H100.582V27.4095C100.582 27.0146 100.396 26.7964 100.022 26.7964C99.641 26.7964 99.3958 27.0662 99.3958 27.4753V29.01H98.855V26.3757ZM102.576 26.3331C101.915 26.3331 101.475 26.861 101.475 27.6922C101.475 28.5234 101.915 29.0539 102.581 29.0539C102.965 29.0539 103.265 28.8616 103.42 28.5608H103.431V29.0087H103.956V25.396H103.413V26.8132H103.402C103.255 26.5228 102.954 26.3331 102.576 26.3331ZM102.723 28.5957C102.296 28.5957 102.028 28.2485 102.028 27.6922C102.028 27.1398 102.296 26.7887 102.723 26.7887C103.139 26.7887 103.416 27.1462 103.416 27.6922C103.416 28.2433 103.139 28.5957 102.723 28.5957ZM104.434 25.6825C104.434 25.5096 104.574 25.3715 104.746 25.3715C104.921 25.3715 105.061 25.5096 105.061 25.6825C105.061 25.8529 104.92 25.991 104.746 25.991C104.574 25.991 104.434 25.8529 104.434 25.6825ZM104.476 26.3757H105.017V29.0087H104.476V26.3757ZM106.036 26.3757H105.521V29.01H106.061V27.4753C106.061 27.0662 106.307 26.7964 106.687 26.7964C107.062 26.7964 107.247 27.0146 107.247 27.4095V29.0087H107.791V27.3037C107.791 26.7009 107.458 26.3305 106.877 26.3305C106.472 26.3305 106.192 26.5151 106.048 26.8158H106.036V26.3757ZM108.237 29.2141H108.78C108.858 29.4348 109.098 29.5793 109.406 29.5793C109.83 29.5793 110.08 29.3393 110.08 28.9791V28.5455H110.07C109.922 28.8307 109.611 29.0192 109.236 29.0192C108.575 29.0192 108.143 28.5029 108.143 27.682C108.143 26.8533 108.572 26.3332 109.249 26.3332C109.622 26.3332 109.928 26.5216 110.088 26.8262H110.097V26.3758H110.622V28.9611C110.622 29.5897 110.137 30.0001 109.386 30.0001C108.765 30.0001 108.304 29.6697 108.237 29.2141ZM110.081 27.6846C110.081 27.1438 109.804 26.7888 109.38 26.7888C108.965 26.7888 108.695 27.1373 108.695 27.6846C108.695 28.2357 108.965 28.5713 109.38 28.5713C109.804 28.5713 110.081 28.228 110.081 27.6846Z" fill="black"/>
</svg>
