<svg width="30" height="32" viewBox="0 0 30 32" fill="none" xmlns="http://www.w3.org/2000/svg">
<path d="M29.7956 26.9916L26.1259 19.1221C24.0996 22.0725 20.9357 24.1734 17.2734 24.8105L20.3454 31.3981C20.7382 32.241 21.9537 32.1848 22.27 31.3143L23.8446 26.989L24.1691 26.8377L28.4944 28.4123C29.3623 28.7308 30.1879 27.8313 29.7956 26.9916Z" fill="#BA8D5B"/>
<path d="M14.9483 0C8.62414 0 3.47852 5.14531 3.47852 11.4697C3.47852 17.7942 8.6242 22.9395 14.9483 22.9395C21.2724 22.9395 26.418 17.7942 26.418 11.4697C26.418 5.14531 21.2724 0 14.9483 0ZM20.5291 10.627L18.4953 12.6096L18.9759 15.4099C19.1229 16.2648 18.2221 16.9071 17.4628 16.5089L14.9483 15.1872L12.4339 16.5089C11.6702 16.9099 10.7746 16.26 10.9207 15.4098L11.4013 12.6096L9.36751 10.6269C8.74939 10.0243 9.09245 8.97237 9.94532 8.84843L12.7564 8.44012L14.0136 5.89306C14.3941 5.11956 15.5023 5.11887 15.8832 5.89306L17.1404 8.44012L19.9515 8.84843C20.8043 8.97231 21.1473 10.0243 20.5291 10.627Z" fill="#BA8D5B"/>
<path d="M3.77031 19.1221L0.100566 26.9916C-0.293496 27.8352 0.539504 28.7298 1.40188 28.4121L5.72713 26.8375L6.05162 26.9888L7.62619 31.3141C7.94187 32.1828 9.15719 32.2427 9.55075 31.398L12.6227 24.8104C8.96044 24.1734 5.79669 22.0726 3.77031 19.1221Z" fill="#BA8D5B"/>
</svg>
