<svg width="62" height="25" viewBox="0 0 62 25" fill="none" xmlns="http://www.w3.org/2000/svg">
<path fill-rule="evenodd" clip-rule="evenodd" d="M0 17.6345V6.95972H2.89197V11.017L6.09866 6.95972H9.36489L5.53728 11.74L9.62857 17.6345H6.3028L3.69152 13.7133L2.89197 14.5554V17.6345H0ZM14.8341 15.1253C15.1744 15.1253 15.4551 15.0487 15.6932 14.8956C15.9314 14.7425 16.127 14.5469 16.2716 14.3002C16.4162 14.0536 16.5268 13.7729 16.5948 13.4496C16.6629 13.1264 16.6969 12.7947 16.6969 12.446V6.95972H19.5889V12.446C19.5889 13.186 19.4953 13.8834 19.3082 14.5299C19.1211 15.1763 18.8319 15.7377 18.4321 16.2055C18.0323 16.6733 17.539 17.0476 16.9436 17.3198C16.3482 17.592 15.6422 17.7281 14.8256 17.7281C13.9835 17.7281 13.2691 17.5835 12.6651 17.3028C12.0697 17.0136 11.5764 16.6308 11.1851 16.1545C10.8024 15.6697 10.5217 15.1168 10.3431 14.4788C10.1644 13.8409 10.0794 13.169 10.0794 12.4545V6.95972H12.9714V12.446C12.9714 12.7947 13.0054 13.1349 13.0734 13.4582C13.1415 13.7814 13.252 14.0706 13.3966 14.3172C13.5412 14.5639 13.7369 14.7595 13.9665 14.9041C14.2132 15.0487 14.5024 15.1253 14.8341 15.1253ZM24.1565 12.3864V17.6345H21.2645V6.95972H23.5186L27.7459 12.3864V6.95972H30.6379V17.6345H28.3413L24.1565 12.3864Z" fill="black"/>
<path d="M49.2746 24.3539C55.9077 24.3539 61.2848 18.9767 61.2848 12.3437C61.2848 5.71065 55.9077 0.333496 49.2746 0.333496C42.6416 0.333496 37.2644 5.71065 37.2644 12.3437C37.2644 18.9767 42.6416 24.3539 49.2746 24.3539Z" fill="black"/>
<path d="M33.5382 17.7195C34.2241 17.7195 34.7801 17.1635 34.7801 16.4777C34.7801 15.7918 34.2241 15.2358 33.5382 15.2358C32.8524 15.2358 32.2964 15.7918 32.2964 16.4777C32.2964 17.1635 32.8524 17.7195 33.5382 17.7195Z" fill="black"/>
<path fill-rule="evenodd" clip-rule="evenodd" d="M44.7079 15.1253C45.0566 15.1253 45.3628 15.0487 45.6095 14.8956C45.8562 14.7425 46.0603 14.5469 46.2134 14.3002C46.3665 14.0536 46.4856 13.7729 46.5536 13.4496C46.6302 13.1264 46.6642 12.7947 46.6642 12.446V6.95972H49.6838V12.446C49.6838 13.186 49.5817 13.8834 49.3861 14.5299C49.1904 15.1763 48.8842 15.7377 48.4674 16.2055C48.0507 16.6733 47.5318 17.0476 46.9109 17.3198C46.2814 17.592 45.5499 17.7281 44.6994 17.7281C43.8233 17.7281 43.0662 17.5835 42.4453 17.3028C41.8159 17.0136 41.3055 16.6308 40.9058 16.1545C40.506 15.6697 40.2083 15.1168 40.0212 14.4788C39.834 13.8409 39.7405 13.169 39.7405 12.4545V6.95972H42.76V12.446C42.76 12.7947 42.7941 13.1349 42.8706 13.4582C42.9472 13.7814 43.0577 14.0706 43.2108 14.3172C43.364 14.5639 43.5681 14.7595 43.8063 14.9041C44.0614 15.0487 44.3591 15.1253 44.7079 15.1253ZM50.5173 15.5251L55.3997 9.53698H50.7385V6.95972H58.7084V9.15421L54.1153 15.1423H58.7935V17.7196H50.5088V15.5251H50.5173Z" fill="white"/>
</svg>
