<svg width="49" height="45" viewBox="0 0 49 45" fill="none" xmlns="http://www.w3.org/2000/svg">
<path d="M29.3033 0.728516L24.456 6.6673L19.6076 0.728516H11V21.1496C11.0395 21.8117 11.4667 25.5655 16.0855 27.4376C17.0531 27.8295 17.9651 28.1734 18.7703 28.4756C20.4576 29.111 22.4013 30.2195 22.8434 30.4961C24.2221 31.3601 24.3385 31.5748 24.4549 31.5417C24.4474 31.5844 25.1053 31.1497 26.0664 30.4961C26.4936 30.2025 28.4511 29.1078 30.1385 28.4756C30.9437 28.1734 31.8557 27.8349 32.8243 27.4376C37.4421 25.5655 37.8703 21.8117 37.9088 21.1496V0.728516H29.3033ZM26.1786 13.3195L24.456 15.6401L22.7323 13.3195L24.456 11.0373L26.1786 13.3195ZM13.5492 3.28088H18.3965L22.9246 8.83415L21.1454 11.1847L19.4121 8.85016H13.5492V3.28088ZM35.3617 21.0086C35.3521 21.2051 35.1556 23.7372 31.8653 25.0668C30.9277 25.4469 30.0317 25.7844 29.2414 26.0813C27.0927 26.8897 25.4257 27.5166 24.456 28.4308C23.4852 27.5209 21.8182 26.894 19.6695 26.0813C18.8792 25.7844 17.9832 25.4469 17.0456 25.0668C13.7553 23.7329 13.5588 21.2008 13.5492 21.0086V11.4079H18.1285L24.456 19.9204L30.7824 11.4079H35.3617V21.0086ZM35.3617 8.8491H29.4988L27.7666 11.1847L25.9863 8.8288L30.5144 3.28088H35.3617V8.8491Z" fill="black"/>
<path d="M0 38.3989H1.0359L2.74459 41.0303H2.80013L4.50882 38.3989H5.55326V43.98H4.50776V41.2258L4.57076 40.2913H4.50776L3.09061 42.3449L2.77022 42.7903L2.45625 42.3449L1.0359 40.2913H0.972889L1.0359 41.2258V43.98H0V38.3989Z" fill="black"/>
<path d="M33.5347 38.3989H34.5706L36.2793 41.0303H36.3337L38.0424 38.3989H39.0879V43.98H38.0446V41.2258L38.1065 40.2913H38.0446L36.6317 42.3449L36.3113 42.7903L35.9909 42.3449L34.5706 40.2913H34.5086L34.5706 41.2258V43.98H33.5347V38.3989Z" fill="black"/>
<path d="M6.63477 38.3989H7.68989V43.98H6.63477V38.3989Z" fill="black"/>
<path d="M8.76807 38.3989H9.81892V42.9772H12.1758V43.98H8.76807V38.3989Z" fill="black"/>
<path d="M12.8848 38.3989H13.9356V42.9772H16.2947V43.98H12.8848V38.3989Z" fill="black"/>
<path d="M18.6294 38.3989H19.8287L21.9229 43.98H20.7631L20.3039 42.6482H18.1531L17.6949 43.98H16.5352L18.6294 38.3989ZM19.9611 41.6775L19.4624 40.2838L19.2605 39.6068H19.1986L18.9957 40.2838L18.497 41.6775H19.9611Z" fill="black"/>
<path d="M23.2162 43.98V39.3964H21.6592V38.3989H25.8241V39.3964H24.2681V43.98H23.2162Z" fill="black"/>
<path d="M30.4044 44.0985C30.0997 44.1025 29.7971 44.0485 29.5127 43.9394C29.2535 43.8382 29.0206 43.6798 28.8313 43.4759C28.638 43.2625 28.4898 43.0122 28.3956 42.7401C28.2867 42.4235 28.2339 42.0902 28.2397 41.7554V38.3989H29.2905V41.8163C29.2887 41.9901 29.3125 42.1631 29.361 42.33C29.4041 42.478 29.4767 42.6157 29.5746 42.7347C29.6695 42.8498 29.7893 42.9418 29.9249 43.0039C30.0771 43.0713 30.2422 43.1044 30.4087 43.101C30.5772 43.105 30.7445 43.0718 30.8988 43.0039C31.0345 42.9418 31.1543 42.8498 31.2491 42.7347C31.3465 42.6154 31.4192 42.4778 31.4627 42.33C31.5103 42.163 31.5337 41.99 31.5321 41.8163V38.3989H32.5723V41.7554C32.5759 42.0797 32.5242 42.4022 32.4196 42.7091C32.3275 42.9831 32.1791 43.2349 31.9839 43.4481C31.7924 43.6549 31.5591 43.8184 31.2993 43.9276C31.0156 44.0445 30.7112 44.1027 30.4044 44.0985Z" fill="black"/>
<path d="M40.167 38.3989H41.2221V43.98H40.1713L40.167 38.3989Z" fill="black"/>
<path d="M42.3003 38.399H44.1852C44.5912 38.3933 44.9948 38.462 45.3759 38.6019C45.7141 38.7269 46.022 38.922 46.2794 39.1743C46.5308 39.4248 46.7259 39.7258 46.8518 40.0575C47.1167 40.7897 47.1167 41.5915 46.8518 42.3237C46.7267 42.6548 46.5314 42.955 46.2794 43.2037C46.0209 43.4536 45.7132 43.6471 45.3759 43.7718C44.9948 43.9117 44.5912 43.9805 44.1852 43.9747H42.3003V38.399ZM44.1382 42.9773C44.4135 42.9823 44.6875 42.9389 44.9477 42.8491C45.1667 42.7729 45.3661 42.6492 45.5319 42.4871C45.6899 42.3277 45.8097 42.1345 45.8821 41.9221C46.0374 41.4442 46.0374 40.9295 45.8821 40.4516C45.8097 40.2392 45.6899 40.046 45.5319 39.8867C45.3661 39.7245 45.1667 39.6009 44.9477 39.5246C44.6875 39.4348 44.4135 39.3914 44.1382 39.3965H43.3522V42.9773H44.1382Z" fill="black"/>
<path d="M47.8599 38.3989H48.9118V43.98H47.8609L47.8599 38.3989Z" fill="black"/>
</svg>
