<svg width="63" height="42" viewBox="0 0 63 42" fill="none" xmlns="http://www.w3.org/2000/svg">
<path d="M62.3754 12.5987L60.716 12.8864C57.334 13.4732 54.1876 14.3686 51.3239 15.4224V6.34274L50.44 6.74087C48.432 7.64374 46.5276 8.58718 44.7127 9.58156L44.6514 0.0688706L43.6903 0.683993C39.0145 3.67375 34.727 7.07107 30.8984 10.8109C27.2111 7.32014 23.0546 3.93037 18.491 0.700031L17.5016 0V9.85988C15.5246 8.74756 13.4977 7.73431 11.4284 6.82861L10.5454 6.4418L10.5869 14.8846C7.55828 13.8431 4.50896 13.1629 1.48697 12.8553L0 12.7043L11.9033 27.5994L11.8505 16.696C13.8963 17.4951 15.7894 18.4074 17.5025 19.348V28.7871L17.6259 28.9541C21.1257 33.6713 30.333 41.3443 30.7231 41.6689L31.1217 42L31.5222 41.6707C31.9123 41.35 41.1262 33.7562 44.6288 28.8551L44.8352 28.5022L44.7786 19.7141C46.3881 18.8669 48.1578 18.0291 50.0707 17.2536V27.6456L62.3754 12.5987ZM51.3239 16.763C53.7598 15.8441 56.4096 15.0384 59.2422 14.4469L51.3239 24.1284V16.763ZM2.87311 14.2912C5.60864 14.6856 8.19434 15.3714 10.5916 16.2262L10.6293 23.9964L2.87311 14.2912ZM43.4029 2.36614L43.4151 10.309C40.6136 11.9185 38.026 13.6638 35.593 15.5903C35.0634 15.0073 34.5188 14.4252 33.959 13.844C33.2579 13.1157 32.5342 12.3921 31.7936 11.6713C35.2867 8.26075 39.1464 5.1691 43.4029 2.36614ZM22.3168 20.8179C21.1445 20.0264 19.9553 19.2886 18.7548 18.6056V12.0477C21.0814 13.4563 23.3316 15.0073 25.4914 16.6923C24.3927 18.0234 23.3335 19.399 22.3168 20.8179ZM26.4648 17.464C27.6889 18.4537 28.8828 19.4867 30.0437 20.5604C28.9224 21.6925 27.8283 22.8803 26.7551 24.1294C25.7619 23.3114 24.6198 22.4284 23.3439 21.5264C24.3427 20.1311 25.3821 18.7763 26.4648 17.464ZM34.6252 16.3724C33.3569 17.4196 32.1309 18.5178 30.937 19.6773C29.7488 18.5763 28.5266 17.5178 27.2733 16.5036C28.438 15.1403 29.6508 13.8214 30.9125 12.5458C32.2195 13.8138 33.4577 15.0894 34.6252 16.3724ZM34.4358 24.9973C32.7557 26.3474 31.5948 27.439 30.9945 28.0296C30.4169 27.4239 29.304 26.3078 27.7153 24.9389C28.7735 23.7086 29.8534 22.5378 30.9587 21.4227C32.1564 22.5708 33.3154 23.7624 34.4358 24.9973ZM26.9021 25.9012C29.2032 27.888 30.4913 29.3324 30.5111 29.3541L30.9672 29.8702L31.4383 29.3674C31.4572 29.3466 32.8037 27.9211 35.2745 25.938C36.0613 26.8361 36.8274 27.756 37.5718 28.6956L31.1622 34.7629L24.6537 28.739C25.3953 27.7588 26.1435 26.8135 26.9021 25.9012ZM31.852 20.5405C33.0214 19.4075 34.2238 18.3338 35.4648 17.3102C36.7388 18.7565 37.9224 20.2094 39.0108 21.6642C38.8939 21.7415 38.7789 21.818 38.6659 21.8934C37.4578 22.7029 36.3751 23.4888 35.4253 24.219C34.2747 22.9482 33.0827 21.7217 31.852 20.5405ZM36.4345 16.529C38.6206 14.8035 40.934 13.2261 43.4189 11.7628L43.4302 19.0122C42.208 19.6782 41.0829 20.3443 40.0633 20.9868C38.9523 19.4999 37.7415 18.0131 36.4345 16.529ZM18.7548 2.43313C22.9048 5.42949 26.6712 8.52868 30.0154 11.6873C29.3615 12.3477 28.7207 13.0166 28.095 13.6968C27.4853 14.361 26.887 15.0394 26.299 15.7281C23.8885 13.8459 21.3679 12.126 18.7548 10.5835V2.43313ZM13.6522 16.0658C13.0501 15.8092 12.4461 15.5658 11.8411 15.3375L11.8072 8.37396C13.7464 9.25702 15.6461 10.2363 17.4997 11.3052V17.914C16.2266 17.2347 14.9422 16.6168 13.6522 16.0658ZM21.595 21.8434C20.6055 23.2727 19.6576 24.7407 18.7558 26.2455V20.0584C19.7782 20.6585 20.728 21.2604 21.595 21.8434ZM31.1245 40.3669C29.3389 38.8574 22.0369 32.5986 18.8783 28.5296C20.0524 26.4578 21.3 24.4671 22.6221 22.5538C23.8593 23.4294 24.9722 24.2907 25.9428 25.0917C25.0532 26.1625 24.1769 27.2767 23.309 28.439L22.9707 28.8919L31.1717 36.4828L39.2642 28.823L38.9137 28.373C38.059 27.2758 37.1751 26.2049 36.2639 25.1624C37.178 24.4605 38.2145 23.7086 39.3641 22.9388C39.4913 22.8529 39.6223 22.7661 39.7542 22.6793C41.13 24.5983 42.3409 26.521 43.3765 28.4381C40.232 32.6411 32.914 38.8678 31.1245 40.3669ZM43.4406 26.0106C42.6452 24.6775 41.767 23.3407 40.8068 22.0019C41.6162 21.4934 42.4926 20.9698 43.4321 20.4443L43.4406 26.0106ZM44.7673 18.3037L44.7202 11.0137C46.4192 10.0618 48.1973 9.15702 50.0688 8.29094V15.9017C48.1615 16.6545 46.389 17.4715 44.7673 18.3037Z" fill="#BA8D5B"/>
</svg>
