<svg width="65" height="41" viewBox="0 0 65 41" fill="none" xmlns="http://www.w3.org/2000/svg">
<path d="M8.54564 33.3399V36.532C8.54564 39.1384 7.52242 40.1866 4.67194 40.1866H0.334961V20.6218H4.40393C7.22665 20.6218 8.2537 21.646 8.2537 24.2763V26.8148C8.2537 28.4228 7.86317 29.4461 6.88876 30.007C8.05844 30.5133 8.54564 31.5614 8.54564 33.3399ZM3.28116 22.9602V29.0766H4.40393C4.93995 29.0766 5.30559 28.8574 5.30559 28.0773V23.9614C5.30559 23.1823 4.93995 22.9621 4.40393 22.9621L3.28116 22.9602ZM5.59944 32.3894C5.59944 31.6102 5.20987 31.415 4.67385 31.415H3.28307V37.8472H4.67194C5.20796 37.8472 5.59753 37.628 5.59753 36.8728L5.59944 32.3894Z" fill="black"/>
<path d="M14.1979 20.3777H14.2467C17.1948 20.3777 18.2429 21.4009 18.2429 24.0322V36.7751C18.2429 39.3825 17.19 40.4306 14.2467 40.4306H14.1979C11.2498 40.4306 10.2026 39.4064 10.2026 36.7751V24.0322C10.2026 21.4258 11.2747 20.3777 14.1979 20.3777ZM13.1507 23.7891V37.0192C13.1507 37.7983 13.614 38.0175 14.1979 38.0175H14.2467C14.8564 38.0175 15.2948 37.7983 15.2948 37.0192V23.7891C15.2948 23.0339 14.8804 22.7898 14.2467 22.7898H14.1979C13.614 22.7946 13.1507 23.009 13.1507 23.7891Z" fill="black"/>
<path d="M26.4044 37.8472V40.1866H19.8257V20.6218H22.7738V37.851L26.4044 37.8472Z" fill="black"/>
<path d="M33.3718 36.6737H31.1789L30.887 40.1866H27.646L30.3022 20.6218H34.2486L36.9048 40.1866H33.6638L33.3718 36.6737ZM33.1804 34.3353L32.4989 26.295L32.2787 23.7853L32.0595 26.295L31.378 34.3353H33.1804Z" fill="black"/>
<path d="M44.6793 37.8472V40.1866H38.1006V20.6218H41.0487V37.851L44.6793 37.8472Z" fill="black"/>
<path d="M51.6458 36.6737H49.4529L49.1657 40.1827H45.9209L48.5771 20.6218H52.5245L55.1816 40.1866H51.9387L51.6458 36.6737ZM51.4543 34.3353L50.7719 26.295L50.5527 23.7853L50.3335 26.295L49.651 34.3353H51.4543Z" fill="black"/>
<path d="M64.3386 40.1866H61.4145L61.2929 33.2183C61.269 32.2927 60.8545 32.0486 60.2209 32.0486H59.3192V40.1846H56.3711V20.6218H60.4448C63.2714 20.6218 64.2946 21.645 64.2946 24.2763V27.4685C64.2946 29.1733 63.8313 30.2214 62.7354 30.7574C63.8562 31.2446 64.197 32.3654 64.2219 34.3392L64.3386 40.1866ZM59.3192 22.9573V29.7064H60.4448C60.9809 29.7064 61.3465 29.4872 61.3465 28.732V23.9595C61.3465 23.1804 60.9809 22.9602 60.4448 22.9602L59.3192 22.9573Z" fill="black"/>
<path d="M54.5814 4.1228H8.68855C8.37084 4.1228 8.11328 4.38036 8.11328 4.69807V16.9471C8.11328 17.2648 8.37084 17.5223 8.68855 17.5223H54.5814C54.8992 17.5223 55.1567 17.2648 55.1567 16.9471V4.69807C55.1567 4.38036 54.8992 4.1228 54.5814 4.1228Z" fill="black"/>
<path d="M12.2604 5.63794H12.2852C13.7938 5.63794 14.3298 6.16152 14.3298 7.50827V14.0286C14.3298 15.3629 13.7938 15.8989 12.2852 15.8989H12.2604C10.7518 15.8989 10.2158 15.3753 10.2158 14.0286V7.50827C10.2158 6.17396 10.7672 5.63794 12.2604 5.63794ZM11.7243 7.38383V14.153C11.7243 14.5521 11.9608 14.6641 12.2604 14.6641H12.2852C12.5963 14.6641 12.8213 14.5521 12.8213 14.153V7.38383C12.8213 7.00096 12.6088 6.8727 12.2852 6.8727H12.2604C11.9608 6.8727 11.7243 6.98469 11.7243 7.38383Z" fill="white"/>
<path d="M19.1909 12.969V14.0286C19.1909 15.3753 18.6674 15.8989 17.1713 15.8989H17.0756C15.6168 15.8989 15.0933 15.3629 15.0933 14.0286V13.2226L16.6018 13.148V14.1578C16.6018 14.5569 16.7932 14.6689 17.0804 14.6689H17.1761C17.4508 14.6689 17.6872 14.5569 17.6872 14.1578V13.0092C17.6793 12.6945 17.5751 12.3898 17.3886 12.1362L15.7882 9.92706C15.39 9.35275 15.1402 8.7928 15.1402 8.13139V7.50827C15.1402 6.17396 15.6762 5.63794 17.1225 5.63794H17.1474C18.6061 5.63794 19.1297 6.16152 19.1297 7.50827V8.25678L17.6212 8.33144V7.38383C17.6212 7.00096 17.4345 6.8727 17.1474 6.8727H17.1225C16.8487 6.8727 16.6487 6.98469 16.6487 7.38383V8.09406C16.6648 8.39589 16.7689 8.68639 16.9483 8.92968L18.5439 11.1312C18.943 11.7093 19.1909 12.2712 19.1909 12.969Z" fill="white"/>
<path d="M26.2498 15.7746H24.7537L24.8906 11.1236L24.9652 9.04176L24.5824 11.1236L23.585 15.7372H22.712L21.7147 11.1236L21.3155 9.02932L21.4026 11.1236L21.5404 15.7746H20.0415V5.76343H21.8238L22.9331 11.4108L23.1456 12.6321L23.3447 11.4108L24.4665 5.76343H26.2498V15.7746Z" fill="white"/>
<path d="M29.1012 5.63794H29.1261C30.6355 5.63794 31.1716 6.16152 31.1716 7.50827V14.0286C31.1716 15.3629 30.6355 15.8989 29.1261 15.8989H29.1012C27.5927 15.8989 27.0566 15.3753 27.0566 14.0286V7.50827C27.0566 6.17396 27.6051 5.63794 29.1012 5.63794ZM28.5699 7.38383V14.153C28.5699 14.5521 28.8073 14.6641 29.106 14.6641H29.1308C29.4429 14.6641 29.6678 14.5521 29.6678 14.153V7.38383C29.6678 7.00096 29.4553 6.8727 29.1308 6.8727H29.106C28.8025 6.8727 28.5699 6.98469 28.5699 7.38383Z" fill="white"/>
<path d="M36.2084 5.76343V15.7746H34.9123L33.6029 11.161L33.3043 9.96831L33.3541 11.1648L33.4909 15.7784H31.9824V5.76343H33.2784L34.5228 10.2009L34.8846 11.6367L34.8348 10.2009L34.697 5.76343H36.2084Z" fill="white"/>
<path d="M41.1088 7.6328V13.9042C41.1088 15.2385 40.5853 15.7746 39.139 15.7746H37.0801V5.76343H39.1371C40.5834 5.76343 41.1088 6.287 41.1088 7.6328ZM39.6128 7.47103C39.6128 7.07189 39.4213 6.9599 39.1342 6.9599H38.5857V14.5771H39.1342C39.4079 14.5771 39.6128 14.4651 39.6128 14.0784V7.47103Z" fill="white"/>
<path d="M44.5998 13.9789H43.4771L43.3278 15.7746H41.6699L43.0253 5.76343H45.0449L46.4041 15.7746H44.7482L44.5998 13.9789ZM44.4993 12.7824L44.1509 8.66655L44.038 7.38393L43.926 8.66751L43.5776 12.7834L44.4993 12.7824Z" fill="white"/>
<path d="M50.7837 15.7745H49.8485L49.4867 15.0135C49.1881 15.5371 48.7688 15.9027 48.1945 15.9027H48.1438C47.3216 15.9027 46.708 15.3284 46.708 13.9951V7.50827C46.708 6.17396 47.2565 5.63794 48.7018 5.63794H48.7277C50.1979 5.63794 50.7224 6.16152 50.7224 7.50827V8.4932L49.2129 8.55542V7.38383C49.2129 7.00096 49.0263 6.8727 48.7277 6.8727H48.7018C48.4281 6.8727 48.2156 6.98469 48.2156 7.38383V13.9884C48.2156 14.5627 48.4654 14.6584 48.7143 14.6584C49.0263 14.6584 49.2761 14.4344 49.2761 13.7969V11.4997H48.7688V10.3032H50.7885L50.7837 15.7745Z" fill="white"/>
<path d="M52.989 5.76343V15.7746H51.4805V5.76343H52.989Z" fill="white"/>
<path d="M42.6045 2.93397H55.0478C55.3878 2.93422 55.7138 3.06946 55.9541 3.30997C56.1945 3.55048 56.3295 3.87658 56.3295 4.21658V17.5214L58.7224 0.396484L42.6045 2.93397Z" fill="black"/>
</svg>
