<svg width="86" height="86" viewBox="0 0 86 86" fill="none" xmlns="http://www.w3.org/2000/svg">
<g filter="url(#filter0_dd_127_3187)">
<rect x="15" width="56" height="56" rx="16" fill="white" fill-opacity="0.6" shape-rendering="crispEdges"/>
</g>
<path d="M43 12C34.178 12 27 19.1776 27 28C27 36.8224 34.1781 44 43 44C51.822 44 59 36.8224 59 28C59 19.1776 51.8221 12 43 12ZM50.7852 26.8244L47.9481 29.5901L48.6185 33.4964C48.8235 34.689 47.5669 35.585 46.5077 35.0295L43.0001 33.1857L39.4925 35.0294C38.4272 35.5888 37.1778 34.6823 37.3817 33.4963L38.0521 29.59L35.215 26.8243C34.3527 25.9837 34.8313 24.5162 36.021 24.3433L39.9424 23.7738L41.6962 20.2207C42.2269 19.1417 43.7729 19.1407 44.3042 20.2207L46.058 23.7738L49.9794 24.3433C51.169 24.5161 51.6474 25.9837 50.7852 26.8244Z" fill="#BA8D5B"/>
<defs>
<filter id="filter0_dd_127_3187" x="0" y="0" width="86" height="86" filterUnits="userSpaceOnUse" color-interpolation-filters="sRGB">
<feFlood flood-opacity="0" result="BackgroundImageFix"/>
<feColorMatrix in="SourceAlpha" type="matrix" values="0 0 0 0 0 0 0 0 0 0 0 0 0 0 0 0 0 0 127 0" result="hardAlpha"/>
<feOffset dy="4"/>
<feGaussianBlur stdDeviation="2"/>
<feComposite in2="hardAlpha" operator="out"/>
<feColorMatrix type="matrix" values="0 0 0 0 0.270833 0 0 0 0 0.0975 0 0 0 0 0 0 0 0 0.2 0"/>
<feBlend mode="normal" in2="BackgroundImageFix" result="effect1_dropShadow_127_3187"/>
<feColorMatrix in="SourceAlpha" type="matrix" values="0 0 0 0 0 0 0 0 0 0 0 0 0 0 0 0 0 0 127 0" result="hardAlpha"/>
<feOffset dy="15"/>
<feGaussianBlur stdDeviation="7.5"/>
<feComposite in2="hardAlpha" operator="out"/>
<feColorMatrix type="matrix" values="0 0 0 0 0.275 0 0 0 0 0.165 0 0 0 0 0 0 0 0 0.16 0"/>
<feBlend mode="normal" in2="effect1_dropShadow_127_3187" result="effect2_dropShadow_127_3187"/>
<feBlend mode="normal" in="SourceGraphic" in2="effect2_dropShadow_127_3187" result="shape"/>
</filter>
</defs>
</svg>
