<svg width="131" height="25" viewBox="0 0 131 25" fill="none" xmlns="http://www.w3.org/2000/svg">
<path d="M24.2871 5.89282V8.08921H29.0651V18.8246H31.6076V8.08921H36.3773V5.89282H24.2871Z" fill="black"/>
<path d="M48.2736 8.08921V5.89282H38.9819V18.8246H48.2736V16.6365H41.4403V13.1588L47.1381 13.1813V10.992L41.4403 10.9683V8.08921H48.2736Z" fill="black"/>
<path d="M60.896 13.908C60.5949 15.6966 59.2496 16.7871 57.3329 16.7871C54.9362 16.7871 53.5068 15.1277 53.5068 12.3398C53.5068 9.59698 54.9671 7.9008 57.3329 7.9008C59.0647 7.9008 60.3247 8.82534 60.7419 10.39H63.3935C62.7214 7.43497 60.4171 5.6084 57.3329 5.6084C54.2096 5.6084 51.0508 7.69218 51.0508 12.3362C51.0508 16.4279 53.5091 19.0724 57.3329 19.0724C60.5949 19.0724 62.93 17.1024 63.4788 13.9044L60.896 13.908Z" fill="black"/>
<path d="M75.0305 5.89282V10.9683H68.7483V5.89282H66.207V18.8246H68.7483V13.1588H75.0305V18.8246H77.5671V5.89282H75.0305Z" fill="black"/>
<path d="M86.9161 5.89282V13.5903C86.9161 15.7499 86.5914 16.7195 84.6901 16.7195C82.8659 16.7195 82.4866 15.9395 82.4629 13.7716H80.0923C80.1077 15.0304 80.2238 16.416 80.8426 17.4164C81.5384 18.5306 82.7984 19.0759 84.6925 19.0759H84.6996C88.6348 19.0759 89.3223 17.2979 89.3223 13.5523V5.89282H86.9161Z" fill="black"/>
<path d="M98.2744 5.61206C95.1511 5.61206 91.9922 7.69584 91.9922 12.3399C91.9922 16.4316 94.4505 19.076 98.2744 19.076C102.098 19.076 104.546 16.4316 104.546 12.3399C104.546 8.2482 102.085 5.61206 98.2744 5.61206ZM98.2744 16.7872C95.8776 16.7872 94.447 15.1278 94.447 12.3399C94.447 9.60539 95.9085 7.9009 98.2744 7.9009C100.67 7.9009 102.101 9.56034 102.101 12.3399C102.101 15.1195 100.67 16.7872 98.2744 16.7872Z" fill="black"/>
<path d="M115.468 12.6207V12.1276C115.738 12.1276 116.82 11.1355 116.82 9.57441C116.82 7.79644 115.205 5.89282 112.79 5.89282H107.335V18.8246H114.107C116.528 18.8246 117.834 17.0976 117.834 15.4761C117.834 13.8546 116.589 12.6207 115.468 12.6207ZM109.871 8.00624H113.071C113.504 8.01891 113.916 8.19745 114.221 8.50497C114.526 8.81249 114.701 9.22548 114.71 9.65857C114.704 10.0951 114.526 10.5117 114.216 10.819C113.906 11.1263 113.488 11.2999 113.051 11.3026H109.871V8.00624ZM113.912 16.7124H109.871V13.416H113.876C114.321 13.4141 114.749 13.5882 115.067 13.9003C115.384 14.2125 115.565 14.6374 115.571 15.0826C115.569 15.2986 115.525 15.5121 115.44 15.7109C115.356 15.9097 115.233 16.09 115.079 16.2413C114.925 16.3927 114.742 16.5122 114.542 16.593C114.342 16.6739 114.128 16.7144 113.912 16.7124Z" fill="black"/>
<path d="M126.18 11.279C124.521 10.9163 122.973 10.5749 122.973 9.43112C122.973 8.2458 124.457 7.80961 125.392 7.80961C126.823 7.80961 128.299 8.50657 128.299 9.68122V9.68833L130.796 9.68122C130.796 7.29399 128.693 5.62744 125.699 5.62744C122.43 5.62744 120.312 7.21813 120.312 9.68122C120.312 11.9843 122.786 12.5603 124.965 13.0677C126.759 13.4849 128.304 13.8476 128.304 15.0305C128.304 16.2135 127.356 16.8334 125.63 16.8334C123.905 16.8334 122.847 16.159 122.847 15.0305V15.0151H120.088V15.0317C120.088 17.4178 122.182 19.0772 125.174 19.0772C128.776 19.0772 130.925 17.4782 130.925 14.8041C130.919 12.3174 128.399 11.765 126.18 11.279Z" fill="black"/>
<path d="M17.5261 7.17676V24.3543H5.89931C2.64088 24.3543 0 21.7656 0 18.5724V14.0895H3.49075V18.4479C3.4937 18.7779 3.56162 19.104 3.69065 19.4077C3.81967 19.7114 4.00727 19.9866 4.24272 20.2178C4.47817 20.449 4.75686 20.6315 5.06287 20.7549C5.36887 20.8783 5.6962 20.9402 6.02614 20.9371H14.0353V7.17676H17.5261Z" fill="black"/>
<path d="M3.49173 6.23992V7.17632H10.5503V17.5111H7.05478V10.5983H0.000976562V6.11546C0.000976562 2.92222 2.64186 0.333496 5.90029 0.333496H17.527V3.7555H6.02949C5.6997 3.7519 5.37244 3.81332 5.06639 3.93624C4.76035 4.05916 4.48153 4.24119 4.24585 4.4719C4.01018 4.70262 3.82228 4.97752 3.69288 5.28088C3.56349 5.58424 3.49513 5.91013 3.49173 6.23992Z" fill="black"/>
</svg>
